solid PiHolder
facet normal -1.0 -1.31210928583722e-031 1.67435509901283e-016
outer loop
vertex 0.666876401044375 -13.0383974163014 11.9942623497497
vertex 0.66687640104438 -68.8383974163014 8.59426234974971
vertex 0.666876401044375 -68.8383974163015 11.9942623497496
endloop
endfacet
facet normal -1.0 -1.31210928583722e-031 1.67435509901283e-016
outer loop
vertex 0.66687640104438 -68.8383974163014 8.59426234974971
vertex 0.666876401044375 -13.0383974163014 11.9942623497497
vertex 0.66687640104438 -13.0383974163014 8.59426234974975
endloop
endfacet
facet normal -0.707106781186531 -0.707106781186563 -2.27124815730438e-015
outer loop
vertex 1.66687640104437 -69.8383974163014 11.9942623497496
vertex 0.66687640104438 -68.8383974163014 8.59426234974971
vertex 1.66687640104438 -69.8383974163014 8.59426234974967
endloop
endfacet
facet normal -0.707106781186531 -0.707106781186563 -2.27124815730438e-015
outer loop
vertex 0.66687640104438 -68.8383974163014 8.59426234974971
vertex 1.66687640104437 -69.8383974163014 11.9942623497496
vertex 0.666876401044375 -68.8383974163015 11.9942623497496
endloop
endfacet
facet normal 1.0 1.3667992788761e-015 -5.63993296509585e-015
outer loop
vertex 91.4668764010444 -68.8383974163014 8.5942623497496
vertex 91.4668764010444 -52.3328781282506 11.9942623497496
vertex 91.4668764010444 -68.8383974163015 11.9942623497495
endloop
endfacet
facet normal 1.0 1.3667992788761e-015 -5.63993296509585e-015
outer loop
vertex 91.4668764010444 -52.3328781282506 11.9942623497496
vertex 91.4668764010444 -68.8383974163014 8.5942623497496
vertex 91.4668764010444 -52.3328781282505 8.59426234974966
endloop
endfacet
facet normal 0.707106781186547 -0.707106781186548 -7.97310982050218e-015
outer loop
vertex 91.4668764010444 -68.8383974163015 11.9942623497495
vertex 90.4668764010444 -69.8383974163014 8.59426234974961
vertex 91.4668764010444 -68.8383974163014 8.5942623497496
endloop
endfacet
facet normal 0.707106781186547 -0.707106781186548 -7.97310982050218e-015
outer loop
vertex 90.4668764010444 -69.8383974163014 8.59426234974961
vertex 91.4668764010444 -68.8383974163015 11.9942623497495
vertex 90.4668764010444 -69.8383974163015 11.9942623497495
endloop
endfacet
facet normal -2.15144542517444e-015 1.0 5.63993296509587e-015
outer loop
vertex 69.0809648384266 -68.8383974163015 1.99426234974962
vertex 90.0526628386713 -68.8383974163015 11.9942623497495
vertex 90.0526628386713 -68.8383974163014 1.9942623497496
endloop
endfacet
facet normal -2.15144542517444e-015 1.0 5.63993296509587e-015
outer loop
vertex 90.0526628386713 -68.8383974163015 11.9942623497495
vertex 69.0809648384266 -68.8383974163015 1.99426234974962
vertex 69.0809648384267 -68.8383974163015 11.9942623497495
endloop
endfacet
facet normal -0.707106781186586 0.707106781186509 7.97706669882502e-015
outer loop
vertex 90.4668764010444 -68.4241838539284 11.9942623497495
vertex 90.0526628386713 -68.8383974163014 1.9942623497496
vertex 90.0526628386713 -68.8383974163015 11.9942623497495
endloop
endfacet
facet normal -0.707106781186586 0.707106781186509 7.97706669882502e-015
outer loop
vertex 90.0526628386713 -68.8383974163014 1.9942623497496
vertex 90.4668764010444 -68.4241838539284 11.9942623497495
vertex 90.4668764010443 -68.4241838539283 1.99426234974963
endloop
endfacet
facet normal -1.0 -7.89677247328469e-030 5.63993296509585e-015
outer loop
vertex 90.4668764010444 -52.3328781282506 11.9942623497496
vertex 90.4668764010443 -68.4241838539283 1.99426234974963
vertex 90.4668764010444 -68.4241838539284 11.9942623497495
endloop
endfacet
facet normal -1.0 -7.89677247328469e-030 5.63993296509585e-015
outer loop
vertex 90.4668764010443 -68.4241838539283 1.99426234974963
vertex 90.4668764010444 -52.3328781282506 11.9942623497496
vertex 90.4668764010443 -52.3328781282505 1.99426234974966
endloop
endfacet
facet normal -7.40241201668821e-015 1.38748350870043e-015 1.0
outer loop
vertex 94.0668764010443 -50.9383974163015 9.19426234974969
vertex 91.5668764010443 -36.8383974163015 9.19426234974966
vertex 91.5668764010443 -50.9383974163015 9.19426234974966
endloop
endfacet
facet normal -7.40241201668821e-015 1.38748350870043e-015 1.0
outer loop
vertex 91.5668764010443 -36.8383974163015 9.19426234974966
vertex 94.0668764010443 -50.9383974163015 9.19426234974969
vertex 94.0668764010443 -36.8383974163015 9.19426234974965
endloop
endfacet
facet normal 1.0 1.73006998446454e-029 6.26659218343977e-015
outer loop
vertex 94.0668764010443 -36.8383974163015 1.99426234974965
vertex 94.0668764010443 -50.9383974163015 9.19426234974969
vertex 94.0668764010443 -50.9383974163015 1.99426234974969
endloop
endfacet
facet normal 1.0 1.73006998446454e-029 6.26659218343977e-015
outer loop
vertex 94.0668764010443 -50.9383974163015 9.19426234974969
vertex 94.0668764010443 -36.8383974163015 1.99426234974965
vertex 94.0668764010443 -36.8383974163015 9.19426234974965
endloop
endfacet
facet normal -4.43998445417042e-031 1.0 -7.83324022929971e-016
outer loop
vertex 91.5668764010443 -36.8383974163015 1.99426234974965
vertex 94.0668764010443 -36.8383974163015 9.19426234974965
vertex 94.0668764010443 -36.8383974163015 1.99426234974965
endloop
endfacet
facet normal -4.43998445417042e-031 1.0 -7.83324022929971e-016
outer loop
vertex 94.0668764010443 -36.8383974163015 9.19426234974965
vertex 91.5668764010443 -36.8383974163015 1.99426234974965
vertex 91.5668764010443 -36.8383974163015 9.19426234974966
endloop
endfacet
facet normal -1.0 -0.0 -7.40241201668821e-015
outer loop
vertex 91.5668764010443 -50.9383974163015 9.19426234974966
vertex 91.5668764010443 -36.8383974163015 1.99426234974965
vertex 91.5668764010443 -50.9383974163015 1.99426234974965
endloop
endfacet
facet normal -1.0 -0.0 -7.40241201668821e-015
outer loop
vertex 91.5668764010443 -36.8383974163015 1.99426234974965
vertex 91.5668764010443 -50.9383974163015 9.19426234974966
vertex 91.5668764010443 -36.8383974163015 9.19426234974966
endloop
endfacet
facet normal -2.32381275909822e-029 -1.0 1.56664804585994e-015
outer loop
vertex 94.0668764010443 -50.9383974163015 1.99426234974969
vertex 91.5668764010443 -50.9383974163015 9.19426234974966
vertex 91.5668764010443 -50.9383974163015 1.99426234974965
endloop
endfacet
facet normal -2.32381275909822e-029 -1.0 1.56664804585994e-015
outer loop
vertex 91.5668764010443 -50.9383974163015 9.19426234974966
vertex 94.0668764010443 -50.9383974163015 1.99426234974969
vertex 94.0668764010443 -50.9383974163015 9.19426234974969
endloop
endfacet
facet normal 1.07201442108478e-015 1.0 3.38395977905751e-015
outer loop
vertex 2.08108996341743 -68.8383974163014 1.99426234974964
vertex 44.1695757462017 -68.8383974163015 11.9942623497495
vertex 44.1695757462017 -68.8383974163014 1.99426234974963
endloop
endfacet
facet normal 1.07201442108478e-015 1.0 3.38395977905751e-015
outer loop
vertex 44.1695757462017 -68.8383974163015 11.9942623497495
vertex 2.08108996341743 -68.8383974163014 1.99426234974964
vertex 2.08108996341743 -68.8383974163014 11.9942623497496
endloop
endfacet
facet normal -0.707106781186558 5.2233179206712e-016 -0.707106781186538
outer loop
vertex -0.933123598955663 -10.3383974163013 1.99426234974978
vertex 1.06687640104432 -69.4383974163012 -0.00573765025030227
vertex -0.93312359895568 -71.4383974163013 1.9942623497498
endloop
endfacet
facet normal -0.707106781186558 5.2233179206712e-016 -0.707106781186538
outer loop
vertex 1.06687640104432 -69.4383974163012 -0.00573765025030227
vertex -0.933123598955663 -10.3383974163013 1.99426234974978
vertex 1.06687640104433 -12.3383974163014 -0.00573765025022613
endloop
endfacet
facet normal 1.0 -8.07490103531848e-018 -1.17498603439497e-016
outer loop
vertex 1.66687640104437 -68.4241838539283 1.99426234974973
vertex 1.66687640104437 -13.0383974163014 11.9942623497497
vertex 1.66687640104437 -68.4241838539284 11.9942623497496
endloop
endfacet
facet normal 1.0 -8.07490103531848e-018 -1.17498603439497e-016
outer loop
vertex 1.66687640104437 -13.0383974163014 11.9942623497497
vertex 1.66687640104437 -68.4241838539283 1.99426234974973
vertex 1.66687640104437 -13.0383974163014 1.99426234974977
endloop
endfacet
facet normal 0.707106781186543 0.707106781186552 2.26729127898152e-015
outer loop
vertex 1.66687640104437 -68.4241838539283 1.99426234974973
vertex 2.08108996341743 -68.8383974163014 11.9942623497496
vertex 2.08108996341743 -68.8383974163014 1.99426234974964
endloop
endfacet
facet normal 0.707106781186543 0.707106781186552 2.26729127898152e-015
outer loop
vertex 2.08108996341743 -68.8383974163014 11.9942623497496
vertex 1.66687640104437 -68.4241838539283 1.99426234974973
vertex 1.66687640104437 -68.4241838539284 11.9942623497496
endloop
endfacet
facet normal 0.627696806813572 0.778457910690132 2.62122718860253e-015
outer loop
vertex 44.1695757462017 -68.8383974163015 11.9942623497495
vertex 45.4097571558252 -69.8383974163015 1.99426234974966
vertex 44.1695757462017 -68.8383974163014 1.99426234974963
endloop
endfacet
facet normal 0.627696806813572 0.778457910690132 2.62122718860253e-015
outer loop
vertex 45.4097571558252 -69.8383974163015 1.99426234974966
vertex 44.1695757462017 -68.8383974163015 11.9942623497495
vertex 45.4097571558252 -69.8383974163016 11.9942623497496
endloop
endfacet
facet normal 1.25056963135136e-015 -2.78620597636983e-015 1.0
outer loop
vertex 69.8125624036318 -69.8383974163016 11.9942623497496
vertex 69.0809648384267 -68.8383974163015 11.9942623497495
vertex 69.0809648384267 -69.8383974163016 11.9942623497495
endloop
endfacet
facet normal 1.25056963135136e-015 -2.78620597636983e-015 1.0
outer loop
vertex 69.0809648384267 -68.8383974163015 11.9942623497495
vertex 69.8125624036318 -69.8383974163016 11.9942623497496
vertex 90.0526628386713 -68.8383974163015 11.9942623497495
endloop
endfacet
facet normal 1.25056963135136e-015 -2.78620597636983e-015 1.0
outer loop
vertex 90.0526628386713 -68.8383974163015 11.9942623497495
vertex 69.8125624036318 -69.8383974163016 11.9942623497496
vertex 90.4668764010444 -69.8383974163015 11.9942623497495
endloop
endfacet
facet normal 1.25056963135136e-015 -2.78620597636983e-015 1.0
outer loop
vertex 90.0526628386713 -68.8383974163015 11.9942623497495
vertex 90.4668764010444 -69.8383974163015 11.9942623497495
vertex 90.4668764010444 -68.4241838539284 11.9942623497495
endloop
endfacet
facet normal 1.25056963135136e-015 -2.78620597636983e-015 1.0
outer loop
vertex 90.4668764010444 -68.4241838539284 11.9942623497495
vertex 90.4668764010444 -69.8383974163015 11.9942623497495
vertex 90.4668764010444 -52.3328781282506 11.9942623497496
endloop
endfacet
facet normal 1.25056963135136e-015 -2.78620597636983e-015 1.0
outer loop
vertex 90.4668764010444 -52.3328781282506 11.9942623497496
vertex 90.4668764010444 -69.8383974163015 11.9942623497495
vertex 91.4668764010444 -52.3328781282506 11.9942623497496
endloop
endfacet
facet normal 1.25056963135136e-015 -2.78620597636983e-015 1.0
outer loop
vertex 91.4668764010444 -52.3328781282506 11.9942623497496
vertex 90.4668764010444 -69.8383974163015 11.9942623497495
vertex 91.4668764010444 -68.8383974163015 11.9942623497495
endloop
endfacet
facet normal 3.00369514203304e-015 -1.0 -8.4598994476438e-015
outer loop
vertex 90.4668764010444 -69.8383974163015 11.9942623497495
vertex 69.8125624036317 -69.8383974163015 8.59426234974963
vertex 90.4668764010444 -69.8383974163014 8.59426234974961
endloop
endfacet
facet normal 3.00369514203304e-015 -1.0 -8.4598994476438e-015
outer loop
vertex 69.8125624036317 -69.8383974163015 8.59426234974963
vertex 90.4668764010444 -69.8383974163015 11.9942623497495
vertex 69.8125624036318 -69.8383974163016 11.9942623497496
endloop
endfacet
facet normal -1.0 2.42666687658978e-029 5.63993296509586e-015
outer loop
vertex 69.0809648384267 -68.8383974163015 11.9942623497495
vertex 69.0809648384266 -69.8383974163015 1.99426234974963
vertex 69.0809648384267 -69.8383974163016 11.9942623497495
endloop
endfacet
facet normal -1.0 2.42666687658978e-029 5.63993296509586e-015
outer loop
vertex 69.0809648384266 -69.8383974163015 1.99426234974963
vertex 69.0809648384267 -68.8383974163015 11.9942623497495
vertex 69.0809648384266 -68.8383974163015 1.99426234974962
endloop
endfacet
facet normal -2.28827829132765e-015 -1.0 -2.81996648254792e-015
outer loop
vertex 43.5668764010444 -69.8383974163015 8.59426234974968
vertex 1.66687640104437 -69.8383974163014 11.9942623497496
vertex 1.66687640104438 -69.8383974163014 8.59426234974967
endloop
endfacet
facet normal -2.28827829132765e-015 -1.0 -2.81996648254792e-015
outer loop
vertex 1.66687640104437 -69.8383974163014 11.9942623497496
vertex 43.5668764010444 -69.8383974163015 8.59426234974968
vertex 43.5668764010444 -69.8383974163015 11.9942623497496
endloop
endfacet
facet normal 1.0 -2.04774036792671e-014 -1.04983391504937e-015
outer loop
vertex 69.8125624036317 -71.4383974163014 8.59426234974964
vertex 69.8125624036317 -69.8383974163016 15.8461361271368
vertex 69.8125624036317 -71.4383974163015 15.8461361271368
endloop
endfacet
facet normal 1.0 -2.04774036792671e-014 -1.04983391504937e-015
outer loop
vertex 69.8125624036317 -69.8383974163016 15.8461361271368
vertex 69.8125624036317 -71.4383974163014 8.59426234974964
vertex 69.8125624036318 -69.8383974163016 11.9942623497496
endloop
endfacet
facet normal 1.0 -2.04774036792671e-014 -1.04983391504937e-015
outer loop
vertex 69.8125624036318 -69.8383974163016 11.9942623497496
vertex 69.8125624036317 -71.4383974163014 8.59426234974964
vertex 69.8125624036317 -69.8383974163015 8.59426234974963
endloop
endfacet
facet normal 0.926728256712429 -1.07839173005737e-014 0.375732269323174
outer loop
vertex 63.5101386536843 -71.4383974163014 16.0030969809884
vertex 63.1929032656168 -69.8383974163016 16.7855450754278
vertex 63.1929032656168 -71.4383974163015 16.7855450754278
endloop
endfacet
facet normal 0.926728256712429 -1.07839173005737e-014 0.375732269323174
outer loop
vertex 63.1929032656168 -69.8383974163016 16.7855450754278
vertex 63.5101386536843 -71.4383974163014 16.0030969809884
vertex 63.5101386536843 -69.8383974163016 16.0030969809885
endloop
endfacet
facet normal 0.815427624914324 -1.98780433475623e-014 0.578859040290972
outer loop
vertex 63.9988764791947 -71.4383974163014 15.3146213824016
vertex 63.5101386536843 -69.8383974163016 16.0030969809885
vertex 63.5101386536843 -71.4383974163014 16.0030969809884
endloop
endfacet
facet normal 0.815427624914324 -1.98780433475623e-014 0.578859040290972
outer loop
vertex 63.5101386536843 -69.8383974163016 16.0030969809885
vertex 63.9988764791947 -71.4383974163014 15.3146213824016
vertex 63.9988764791947 -69.8383974163016 15.3146213824016
endloop
endfacet
facet normal 0.46990541305797 -3.4436352086847e-014 0.882716773817524
outer loop
vertex 65.378185437714 -71.4383974163014 14.3603069013948
vertex 64.6328967809795 -69.8383974163016 14.7570538359475
vertex 64.6328967809795 -71.4383974163014 14.7570538359475
endloop
endfacet
facet normal 0.46990541305797 -3.4436352086847e-014 0.882716773817524
outer loop
vertex 64.6328967809795 -69.8383974163016 14.7570538359475
vertex 65.378185437714 -71.4383974163014 14.3603069013948
vertex 65.378185437714 -69.8383974163016 14.3603069013949
endloop
endfacet
facet normal -0.205761966720684 -4.20510752638571e-014 0.978602070839438
outer loop
vertex 67.865055373326 -71.4383974163014 14.298371804042
vertex 67.0388095779739 -69.8383974163016 14.124644438331
vertex 67.0388095779739 -71.4383974163014 14.1246444383309
endloop
endfacet
facet normal -0.205761966720684 -4.20510752638571e-014 0.978602070839438
outer loop
vertex 67.0388095779739 -69.8383974163016 14.124644438331
vertex 67.865055373326 -71.4383974163014 14.298371804042
vertex 67.865055373326 -69.8383974163016 14.2983718040421
endloop
endfacet
facet normal -8.49477318980004e-016 1.0 1.01627871979407e-014
outer loop
vertex 45.4097571558252 -69.8383974163015 1.99426234974966
vertex 46.902190698083 -69.8383974163016 11.4475961314487
vertex 48.0668764010443 -69.8383974163016 11.2942623497496
endloop
endfacet
facet normal -8.49477318980004e-016 1.0 1.01627871979407e-014
outer loop
vertex 46.902190698083 -69.8383974163016 11.4475961314487
vertex 45.4097571558252 -69.8383974163015 1.99426234974966
vertex 45.4097571558252 -69.8383974163016 11.9942623497496
endloop
endfacet
facet normal -8.49477318980004e-016 1.0 1.01627871979407e-014
outer loop
vertex 46.902190698083 -69.8383974163016 11.4475961314487
vertex 45.4097571558252 -69.8383974163016 11.9942623497496
vertex 45.8168764010443 -69.8383974163016 11.8971480327196
endloop
endfacet
facet normal -8.49477318980004e-016 1.0 1.01627871979407e-014
outer loop
vertex 45.8168764010443 -69.8383974163016 11.8971480327196
vertex 45.4097571558252 -69.8383974163016 11.9942623497496
vertex 45.6903145590247 -69.8383974163016 11.9942623497496
endloop
endfacet
facet normal -8.49477318980004e-016 1.0 1.01627871979407e-014
outer loop
vertex 45.6903145590247 -69.8383974163016 11.9942623497496
vertex 45.4097571558252 -69.8383974163016 11.9942623497496
vertex 44.8848958857048 -69.8383974163016 12.6122818344101
endloop
endfacet
facet normal -8.49477318980004e-016 1.0 1.01627871979407e-014
outer loop
vertex 44.8848958857048 -69.8383974163016 12.6122818344101
vertex 45.4097571558252 -69.8383974163016 11.9942623497496
vertex 43.5668764010444 -69.8383974163015 11.9942623497496
endloop
endfacet
facet normal -8.49477318980004e-016 1.0 1.01627871979407e-014
outer loop
vertex 44.8848958857048 -69.8383974163016 12.6122818344101
vertex 43.5668764010444 -69.8383974163015 11.9942623497496
vertex 44.1697620840143 -69.8383974163015 13.5442623497497
endloop
endfacet
facet normal -8.49477318980004e-016 1.0 1.01627871979407e-014
outer loop
vertex 44.1697620840143 -69.8383974163015 13.5442623497497
vertex 43.5668764010444 -69.8383974163015 11.9942623497496
vertex 43.7202101827434 -69.8383974163017 14.6295766467882
endloop
endfacet
facet normal -8.49477318980004e-016 1.0 1.01627871979407e-014
outer loop
vertex 43.7202101827434 -69.8383974163017 14.6295766467882
vertex 43.5668764010444 -69.8383974163015 11.9942623497496
vertex 43.5668764010442 -69.8383974163016 15.7942623497495
endloop
endfacet
facet normal -8.49477318980004e-016 1.0 1.01627871979407e-014
outer loop
vertex 51.9639907180742 -69.8383974163014 13.5442623497496
vertex 66.1947589682375 -69.8383974163016 14.1456653835506
vertex 67.0388095779739 -69.8383974163016 14.124644438331
endloop
endfacet
facet normal -8.49477318980004e-016 1.0 1.01627871979407e-014
outer loop
vertex 66.1947589682375 -69.8383974163016 14.1456653835506
vertex 51.9639907180742 -69.8383974163014 13.5442623497496
vertex 52.4135426193451 -69.8383974163016 14.6295766467882
endloop
endfacet
facet normal -8.49477318980004e-016 1.0 1.01627871979407e-014
outer loop
vertex 66.1947589682375 -69.8383974163016 14.1456653835506
vertex 52.4135426193451 -69.8383974163016 14.6295766467882
vertex 65.378185437714 -69.8383974163016 14.3603069013949
endloop
endfacet
facet normal -8.49477318980004e-016 1.0 1.01627871979407e-014
outer loop
vertex 65.378185437714 -69.8383974163016 14.3603069013949
vertex 52.4135426193451 -69.8383974163016 14.6295766467882
vertex 64.6328967809795 -69.8383974163016 14.7570538359475
endloop
endfacet
facet normal -8.49477318980004e-016 1.0 1.01627871979407e-014
outer loop
vertex 64.6328967809795 -69.8383974163016 14.7570538359475
vertex 52.4135426193451 -69.8383974163016 14.6295766467882
vertex 52.5668764010444 -69.8383974163015 15.7942623497496
endloop
endfacet
facet normal -8.49477318980004e-016 1.0 1.01627871979407e-014
outer loop
vertex 64.6328967809795 -69.8383974163016 14.7570538359475
vertex 52.5668764010444 -69.8383974163015 15.7942623497496
vertex 63.9988764791947 -69.8383974163016 15.3146213824016
endloop
endfacet
facet normal -8.49477318980004e-016 1.0 1.01627871979407e-014
outer loop
vertex 63.9988764791947 -69.8383974163016 15.3146213824016
vertex 52.5668764010444 -69.8383974163015 15.7942623497496
vertex 56.5940333997507 -69.8383974163016 15.7942623497496
endloop
endfacet
facet normal -8.49477318980004e-016 1.0 1.01627871979407e-014
outer loop
vertex 63.9988764791947 -69.8383974163016 15.3146213824016
vertex 56.5940333997507 -69.8383974163016 15.7942623497496
vertex 63.5101386536843 -69.8383974163016 16.0030969809885
endloop
endfacet
facet normal -8.49477318980004e-016 1.0 1.01627871979407e-014
outer loop
vertex 63.5101386536843 -69.8383974163016 16.0030969809885
vertex 56.5940333997507 -69.8383974163016 15.7942623497496
vertex 59.2940333997504 -69.8383974163017 18.4616611926608
endloop
endfacet
facet normal -8.49477318980004e-016 1.0 1.01627871979407e-014
outer loop
vertex 63.5101386536843 -69.8383974163016 16.0030969809885
vertex 59.2940333997504 -69.8383974163017 18.4616611926608
vertex 63.1929032656168 -69.8383974163016 16.7855450754278
endloop
endfacet
facet normal -8.49477318980004e-016 1.0 1.01627871979407e-014
outer loop
vertex 63.1929032656168 -69.8383974163016 16.7855450754278
vertex 59.2940333997504 -69.8383974163017 18.4616611926608
vertex 63.0641894592495 -69.8383974163017 17.6199886433128
endloop
endfacet
facet normal -8.49477318980004e-016 1.0 1.01627871979407e-014
outer loop
vertex 63.0641894592495 -69.8383974163017 17.6199886433128
vertex 59.2940333997504 -69.8383974163017 18.4616611926608
vertex 63.1309025135044 -69.8383974163017 18.4616611926609
endloop
endfacet
facet normal -8.49477318980004e-016 1.0 1.01627871979407e-014
outer loop
vertex 45.4097571558252 -69.8383974163015 1.99426234974966
vertex 69.0809648384267 -69.8383974163016 11.9942623497495
vertex 69.0809648384266 -69.8383974163015 1.99426234974963
endloop
endfacet
facet normal -8.49477318980004e-016 1.0 1.01627871979407e-014
outer loop
vertex 69.0809648384267 -69.8383974163016 11.9942623497495
vertex 45.4097571558252 -69.8383974163015 1.99426234974966
vertex 48.0668764010443 -69.8383974163016 11.2942623497496
endloop
endfacet
facet normal -8.49477318980004e-016 1.0 1.01627871979407e-014
outer loop
vertex 69.0809648384267 -69.8383974163016 11.9942623497495
vertex 48.0668764010443 -69.8383974163016 11.2942623497496
vertex 49.2315621040056 -69.8383974163016 11.4475961314487
endloop
endfacet
facet normal -8.49477318980004e-016 1.0 1.01627871979407e-014
outer loop
vertex 69.0809648384267 -69.8383974163016 11.9942623497495
vertex 49.2315621040056 -69.8383974163016 11.4475961314487
vertex 50.3168764010443 -69.8383974163017 11.8971480327196
endloop
endfacet
facet normal -8.49477318980004e-016 1.0 1.01627871979407e-014
outer loop
vertex 69.0809648384267 -69.8383974163016 11.9942623497495
vertex 50.3168764010443 -69.8383974163017 11.8971480327196
vertex 50.4434382430639 -69.8383974163016 11.9942623497496
endloop
endfacet
facet normal -8.49477318980004e-016 1.0 1.01627871979407e-014
outer loop
vertex 69.0809648384267 -69.8383974163016 11.9942623497495
vertex 50.4434382430639 -69.8383974163016 11.9942623497496
vertex 69.8125624036318 -69.8383974163016 11.9942623497496
endloop
endfacet
facet normal -8.49477318980004e-016 1.0 1.01627871979407e-014
outer loop
vertex 69.8125624036318 -69.8383974163016 11.9942623497496
vertex 50.4434382430639 -69.8383974163016 11.9942623497496
vertex 67.0388095779739 -69.8383974163016 14.124644438331
endloop
endfacet
facet normal -8.49477318980004e-016 1.0 1.01627871979407e-014
outer loop
vertex 69.8125624036318 -69.8383974163016 11.9942623497496
vertex 67.0388095779739 -69.8383974163016 14.124644438331
vertex 67.865055373326 -69.8383974163016 14.2983718040421
endloop
endfacet
facet normal -8.49477318980004e-016 1.0 1.01627871979407e-014
outer loop
vertex 69.8125624036318 -69.8383974163016 11.9942623497496
vertex 67.865055373326 -69.8383974163016 14.2983718040421
vertex 68.6291696590008 -69.8383974163016 14.6575273001186
endloop
endfacet
facet normal -8.49477318980004e-016 1.0 1.01627871979407e-014
outer loop
vertex 69.8125624036318 -69.8383974163016 11.9942623497496
vertex 68.6291696590008 -69.8383974163016 14.6575273001186
vertex 69.2901589905521 -69.8383974163016 15.1828428391135
endloop
endfacet
facet normal -8.49477318980004e-016 1.0 1.01627871979407e-014
outer loop
vertex 69.8125624036318 -69.8383974163016 11.9942623497496
vertex 69.2901589905521 -69.8383974163016 15.1828428391135
vertex 69.8125624036317 -69.8383974163016 15.8461361271368
endloop
endfacet
facet normal -8.49477318980004e-016 1.0 1.01627871979407e-014
outer loop
vertex 67.0388095779739 -69.8383974163016 14.124644438331
vertex 50.4434382430639 -69.8383974163016 11.9942623497496
vertex 51.2488569163838 -69.8383974163016 12.6122818344101
endloop
endfacet
facet normal -8.49477318980004e-016 1.0 1.01627871979407e-014
outer loop
vertex 67.0388095779739 -69.8383974163016 14.124644438331
vertex 51.2488569163838 -69.8383974163016 12.6122818344101
vertex 51.9639907180742 -69.8383974163014 13.5442623497496
endloop
endfacet
facet normal 0.254220517710519 -3.91195060355126e-014 0.967146280753328
outer loop
vertex 66.1947589682375 -71.4383974163014 14.1456653835505
vertex 65.378185437714 -69.8383974163016 14.3603069013949
vertex 65.378185437714 -71.4383974163014 14.3603069013948
endloop
endfacet
facet normal 0.254220517710519 -3.91195060355126e-014 0.967146280753328
outer loop
vertex 65.378185437714 -69.8383974163016 14.3603069013949
vertex 66.1947589682375 -71.4383974163014 14.1456653835505
vertex 66.1947589682375 -69.8383974163016 14.1456653835506
endloop
endfacet
facet normal -0.425382270252863 -4.01422167920116e-014 0.905013770146355
outer loop
vertex 68.6291696590008 -71.4383974163014 14.6575273001185
vertex 67.865055373326 -69.8383974163016 14.2983718040421
vertex 67.865055373326 -71.4383974163014 14.298371804042
endloop
endfacet
facet normal -0.425382270252863 -4.01422167920116e-014 0.905013770146355
outer loop
vertex 67.865055373326 -69.8383974163016 14.2983718040421
vertex 68.6291696590008 -71.4383974163014 14.6575273001185
vertex 68.6291696590008 -69.8383974163016 14.6575273001186
endloop
endfacet
facet normal -0.62218153144778 -3.60797959999086e-014 0.782873004979285
outer loop
vertex 69.2901589905521 -71.4383974163014 15.1828428391134
vertex 68.6291696590008 -69.8383974163016 14.6575273001186
vertex 68.6291696590008 -71.4383974163014 14.6575273001185
endloop
endfacet
facet normal -0.62218153144778 -3.60797959999086e-014 0.782873004979285
outer loop
vertex 68.6291696590008 -69.8383974163016 14.6575273001186
vertex 69.2901589905521 -71.4383974163014 15.1828428391134
vertex 69.2901589905521 -69.8383974163016 15.1828428391135
endloop
endfacet
facet normal 0.988311478405501 -1.11125225351877e-015 0.152448094943602
outer loop
vertex 63.1929032656168 -71.4383974163015 16.7855450754278
vertex 63.0641894592495 -69.8383974163017 17.6199886433128
vertex 63.0641894592495 -71.4383974163015 17.6199886433127
endloop
endfacet
facet normal 0.988311478405501 -1.11125225351877e-015 0.152448094943602
outer loop
vertex 63.0641894592495 -69.8383974163017 17.6199886433128
vertex 63.1929032656168 -71.4383974163015 16.7855450754278
vertex 63.1929032656168 -69.8383974163016 16.7855450754278
endloop
endfacet
facet normal -0.785601801406904 -2.61828645919881e-014 0.618732421670489
outer loop
vertex 69.8125624036317 -69.8383974163016 15.8461361271368
vertex 69.2901589905521 -71.4383974163014 15.1828428391134
vertex 69.8125624036317 -71.4383974163015 15.8461361271368
endloop
endfacet
facet normal -0.785601801406904 -2.61828645919881e-014 0.618732421670489
outer loop
vertex 69.2901589905521 -71.4383974163014 15.1828428391134
vertex 69.8125624036317 -69.8383974163016 15.8461361271368
vertex 69.2901589905521 -69.8383974163016 15.1828428391135
endloop
endfacet
facet normal -0.991444861373819 -2.22236524659558e-014 0.130526192219988
outer loop
vertex 52.5668764010444 -69.8383974163015 15.7942623497496
vertex 52.4135426193453 -71.4383974163015 14.6295766467882
vertex 52.5668764010444 -71.4383974163015 15.7942623497496
endloop
endfacet
facet normal -0.991444861373819 -2.22236524659558e-014 0.130526192219988
outer loop
vertex 52.4135426193453 -71.4383974163015 14.6295766467882
vertex 52.5668764010444 -69.8383974163015 15.7942623497496
vertex 52.4135426193453 -70.1383974163015 14.6295766467882
endloop
endfacet
facet normal -0.991444861373819 -2.22236524659558e-014 0.130526192219988
outer loop
vertex 52.4135426193453 -70.1383974163015 14.6295766467882
vertex 52.5668764010444 -69.8383974163015 15.7942623497496
vertex 52.4135426193454 -69.9383974163015 14.6295766467882
endloop
endfacet
facet normal -0.991444861373819 -2.22236524659558e-014 0.130526192219988
outer loop
vertex 52.4135426193454 -69.9383974163015 14.6295766467882
vertex 52.5668764010444 -69.8383974163015 15.7942623497496
vertex 52.4135426193451 -69.8383974163016 14.6295766467882
endloop
endfacet
facet normal -0.793353340291276 -4.24841495717824e-014 0.608761429008667
outer loop
vertex 51.9639907180743 -71.4383974163014 13.5442623497497
vertex 51.2488569163839 -70.1383974163015 12.6122818344102
vertex 51.2488569163841 -71.4383974163015 12.6122818344101
endloop
endfacet
facet normal -0.793353340291276 -4.24841495717824e-014 0.608761429008667
outer loop
vertex 51.2488569163839 -70.1383974163015 12.6122818344102
vertex 51.9639907180743 -71.4383974163014 13.5442623497497
vertex 51.9639907180744 -70.1383974163014 13.5442623497496
endloop
endfacet
facet normal -0.793353340291276 -4.24841495717824e-014 0.608761429008667
outer loop
vertex 51.2488569163839 -70.1383974163015 12.6122818344102
vertex 51.9639907180744 -70.1383974163014 13.5442623497496
vertex 51.2488569163839 -69.9383974163014 12.6122818344102
endloop
endfacet
facet normal -0.793353340291276 -4.24841495717824e-014 0.608761429008667
outer loop
vertex 51.2488569163839 -69.9383974163014 12.6122818344102
vertex 51.9639907180744 -70.1383974163014 13.5442623497496
vertex 51.9639907180744 -69.9383974163014 13.5442623497496
endloop
endfacet
facet normal -0.793353340291276 -4.24841495717824e-014 0.608761429008667
outer loop
vertex 51.2488569163839 -69.9383974163014 12.6122818344102
vertex 51.9639907180744 -69.9383974163014 13.5442623497496
vertex 51.9639907180742 -69.8383974163014 13.5442623497496
endloop
endfacet
facet normal -0.793353340291276 -4.24841495717824e-014 0.608761429008667
outer loop
vertex 51.2488569163839 -69.9383974163014 12.6122818344102
vertex 51.9639907180742 -69.8383974163014 13.5442623497496
vertex 51.2488569163838 -69.8383974163016 12.6122818344101
endloop
endfacet
facet normal -0.923879532511245 6.48251426049511e-015 0.382683432365191
outer loop
vertex 52.4135426193453 -70.1383974163015 14.6295766467882
vertex 51.9639907180743 -71.4383974163014 13.5442623497497
vertex 52.4135426193453 -71.4383974163015 14.6295766467882
endloop
endfacet
facet normal -0.923879532511245 6.48251426049511e-015 0.382683432365191
outer loop
vertex 51.9639907180743 -71.4383974163014 13.5442623497497
vertex 52.4135426193453 -70.1383974163015 14.6295766467882
vertex 51.9639907180744 -70.1383974163014 13.5442623497496
endloop
endfacet
facet normal -0.923879532511245 6.48251426049511e-015 0.382683432365191
outer loop
vertex 51.9639907180744 -70.1383974163014 13.5442623497496
vertex 52.4135426193453 -70.1383974163015 14.6295766467882
vertex 52.4135426193454 -69.9383974163015 14.6295766467882
endloop
endfacet
facet normal -0.923879532511245 6.48251426049511e-015 0.382683432365191
outer loop
vertex 51.9639907180744 -70.1383974163014 13.5442623497496
vertex 52.4135426193454 -69.9383974163015 14.6295766467882
vertex 51.9639907180744 -69.9383974163014 13.5442623497496
endloop
endfacet
facet normal -0.923879532511245 6.48251426049511e-015 0.382683432365191
outer loop
vertex 51.9639907180744 -69.9383974163014 13.5442623497496
vertex 52.4135426193454 -69.9383974163015 14.6295766467882
vertex 52.4135426193451 -69.8383974163016 14.6295766467882
endloop
endfacet
facet normal -0.923879532511245 6.48251426049511e-015 0.382683432365191
outer loop
vertex 51.9639907180744 -69.9383974163014 13.5442623497496
vertex 52.4135426193451 -69.8383974163016 14.6295766467882
vertex 51.9639907180742 -69.8383974163014 13.5442623497496
endloop
endfacet
facet normal 0.991444861373797 9.16590478406425e-014 0.130526192220151
outer loop
vertex 43.7202101827436 -71.4383974163015 14.6295766467883
vertex 43.5668764010442 -69.8383974163016 15.7942623497495
vertex 43.5668764010444 -71.4383974163016 15.7942623497496
endloop
endfacet
facet normal 0.991444861373797 9.16590478406425e-014 0.130526192220151
outer loop
vertex 43.5668764010442 -69.8383974163016 15.7942623497495
vertex 43.7202101827436 -71.4383974163015 14.6295766467883
vertex 43.7202101827437 -70.1383974163015 14.6295766467883
endloop
endfacet
facet normal 0.991444861373797 9.16590478406425e-014 0.130526192220151
outer loop
vertex 43.5668764010442 -69.8383974163016 15.7942623497495
vertex 43.7202101827437 -70.1383974163015 14.6295766467883
vertex 43.7202101827437 -69.9383974163015 14.6295766467883
endloop
endfacet
facet normal 0.991444861373797 9.16590478406425e-014 0.130526192220151
outer loop
vertex 43.5668764010442 -69.8383974163016 15.7942623497495
vertex 43.7202101827437 -69.9383974163015 14.6295766467883
vertex 43.7202101827434 -69.8383974163017 14.6295766467882
endloop
endfacet
facet normal 0.382683432365089 3.07020324578707e-014 0.923879532511287
outer loop
vertex 46.902190698083 -71.4383974163015 11.4475961314488
vertex 45.8168764010445 -70.1383974163015 11.8971480327196
vertex 45.8168764010444 -71.4383974163016 11.8971480327196
endloop
endfacet
facet normal 0.382683432365089 3.07020324578707e-014 0.923879532511287
outer loop
vertex 45.8168764010445 -70.1383974163015 11.8971480327196
vertex 46.902190698083 -71.4383974163015 11.4475961314488
vertex 46.902190698083 -69.8383974163016 11.4475961314487
endloop
endfacet
facet normal 0.382683432365089 3.07020324578707e-014 0.923879532511287
outer loop
vertex 46.902190698083 -69.8383974163016 11.4475961314487
vertex 46.902190698083 -71.4383974163015 11.4475961314488
vertex 46.902190698083 -69.9383974163016 11.4475961314488
endloop
endfacet
facet normal 0.382683432365089 3.07020324578707e-014 0.923879532511287
outer loop
vertex 46.902190698083 -69.9383974163016 11.4475961314488
vertex 46.902190698083 -71.4383974163015 11.4475961314488
vertex 46.9021906980831 -70.1383974163014 11.4475961314488
endloop
endfacet
facet normal 0.382683432365089 3.07020324578707e-014 0.923879532511287
outer loop
vertex 45.8168764010445 -70.1383974163015 11.8971480327196
vertex 45.8168764010443 -69.8383974163016 11.8971480327196
vertex 45.8168764010442 -69.9383974163015 11.8971480327196
endloop
endfacet
facet normal 0.382683432365089 3.07020324578707e-014 0.923879532511287
outer loop
vertex 45.8168764010443 -69.8383974163016 11.8971480327196
vertex 45.8168764010445 -70.1383974163015 11.8971480327196
vertex 46.902190698083 -69.8383974163016 11.4475961314487
endloop
endfacet
facet normal -0.382683432365123 -1.82226360379864e-014 0.923879532511273
outer loop
vertex 49.2315621040057 -69.9383974163016 11.4475961314488
vertex 50.3168764010443 -69.8383974163017 11.8971480327196
vertex 49.2315621040056 -69.8383974163016 11.4475961314487
endloop
endfacet
facet normal -0.382683432365123 -1.82226360379864e-014 0.923879532511273
outer loop
vertex 50.3168764010443 -69.8383974163017 11.8971480327196
vertex 49.2315621040057 -69.9383974163016 11.4475961314488
vertex 49.2315621040057 -70.1383974163016 11.4475961314488
endloop
endfacet
facet normal -0.382683432365123 -1.82226360379864e-014 0.923879532511273
outer loop
vertex 50.3168764010443 -69.8383974163017 11.8971480327196
vertex 49.2315621040057 -70.1383974163016 11.4475961314488
vertex 49.2315621040057 -71.4383974163016 11.4475961314488
endloop
endfacet
facet normal -0.382683432365123 -1.82226360379864e-014 0.923879532511273
outer loop
vertex 50.3168764010443 -69.8383974163017 11.8971480327196
vertex 49.2315621040057 -71.4383974163016 11.4475961314488
vertex 50.3168764010444 -71.4383974163015 11.8971480327196
endloop
endfacet
facet normal -0.382683432365123 -1.82226360379864e-014 0.923879532511273
outer loop
vertex 50.3168764010443 -69.8383974163017 11.8971480327196
vertex 50.3168764010444 -71.4383974163015 11.8971480327196
vertex 50.3168764010444 -69.9383974163016 11.8971480327197
endloop
endfacet
facet normal -0.382683432365123 -1.82226360379864e-014 0.923879532511273
outer loop
vertex 50.3168764010444 -69.9383974163016 11.8971480327197
vertex 50.3168764010444 -71.4383974163015 11.8971480327196
vertex 50.3168764010445 -70.1383974163015 11.8971480327197
endloop
endfacet
facet normal 0.923879532511292 5.01419126221838e-014 0.382683432365076
outer loop
vertex 44.1697620840144 -71.4383974163015 13.5442623497496
vertex 43.7202101827437 -70.1383974163015 14.6295766467883
vertex 43.7202101827436 -71.4383974163015 14.6295766467883
endloop
endfacet
facet normal 0.923879532511292 5.01419126221838e-014 0.382683432365076
outer loop
vertex 43.7202101827437 -70.1383974163015 14.6295766467883
vertex 44.1697620840144 -71.4383974163015 13.5442623497496
vertex 44.1697620840144 -70.1383974163015 13.5442623497496
endloop
endfacet
facet normal 0.923879532511292 5.01419126221838e-014 0.382683432365076
outer loop
vertex 43.7202101827437 -70.1383974163015 14.6295766467883
vertex 44.1697620840144 -70.1383974163015 13.5442623497496
vertex 44.1697620840144 -69.9383974163015 13.5442623497496
endloop
endfacet
facet normal 0.923879532511292 5.01419126221838e-014 0.382683432365076
outer loop
vertex 43.7202101827437 -70.1383974163015 14.6295766467883
vertex 44.1697620840144 -69.9383974163015 13.5442623497496
vertex 43.7202101827437 -69.9383974163015 14.6295766467883
endloop
endfacet
facet normal 0.923879532511292 5.01419126221838e-014 0.382683432365076
outer loop
vertex 43.7202101827437 -69.9383974163015 14.6295766467883
vertex 44.1697620840144 -69.9383974163015 13.5442623497496
vertex 43.7202101827434 -69.8383974163017 14.6295766467882
endloop
endfacet
facet normal 0.923879532511292 5.01419126221838e-014 0.382683432365076
outer loop
vertex 43.7202101827434 -69.8383974163017 14.6295766467882
vertex 44.1697620840144 -69.9383974163015 13.5442623497496
vertex 44.1697620840143 -69.8383974163015 13.5442623497497
endloop
endfacet
facet normal -0.130526192220026 6.61501938064914e-017 0.991444861373814
outer loop
vertex 48.0668764010444 -71.4383974163016 11.2942623497496
vertex 48.0668764010444 -69.9383974163015 11.2942623497496
vertex 48.0668764010443 -70.1383974163015 11.2942623497496
endloop
endfacet
facet normal -0.130526192220026 6.61501938064914e-017 0.991444861373814
outer loop
vertex 48.0668764010444 -69.9383974163015 11.2942623497496
vertex 48.0668764010444 -71.4383974163016 11.2942623497496
vertex 49.2315621040057 -71.4383974163016 11.4475961314488
endloop
endfacet
facet normal -0.130526192220026 6.61501938064914e-017 0.991444861373814
outer loop
vertex 48.0668764010444 -69.9383974163015 11.2942623497496
vertex 49.2315621040057 -71.4383974163016 11.4475961314488
vertex 49.2315621040056 -69.8383974163016 11.4475961314487
endloop
endfacet
facet normal -0.130526192220026 6.61501938064914e-017 0.991444861373814
outer loop
vertex 49.2315621040056 -69.8383974163016 11.4475961314487
vertex 49.2315621040057 -71.4383974163016 11.4475961314488
vertex 49.2315621040057 -69.9383974163016 11.4475961314488
endloop
endfacet
facet normal -0.130526192220026 6.61501938064914e-017 0.991444861373814
outer loop
vertex 49.2315621040057 -69.9383974163016 11.4475961314488
vertex 49.2315621040057 -71.4383974163016 11.4475961314488
vertex 49.2315621040057 -70.1383974163016 11.4475961314488
endloop
endfacet
facet normal -0.130526192220026 6.61501938064914e-017 0.991444861373814
outer loop
vertex 49.2315621040056 -69.8383974163016 11.4475961314487
vertex 48.0668764010443 -69.8383974163016 11.2942623497496
vertex 48.0668764010444 -69.9383974163015 11.2942623497496
endloop
endfacet
facet normal 0.608761429008734 6.37725568078973e-014 0.793353340291225
outer loop
vertex 44.884895885705 -69.9383974163015 12.6122818344101
vertex 45.6903145590247 -69.8383974163016 11.9942623497496
vertex 44.8848958857048 -69.8383974163016 12.6122818344101
endloop
endfacet
facet normal 0.608761429008734 6.37725568078973e-014 0.793353340291225
outer loop
vertex 45.6903145590247 -69.8383974163016 11.9942623497496
vertex 44.884895885705 -69.9383974163015 12.6122818344101
vertex 44.884895885705 -70.1383974163015 12.6122818344101
endloop
endfacet
facet normal 0.608761429008734 6.37725568078973e-014 0.793353340291225
outer loop
vertex 45.6903145590247 -69.8383974163016 11.9942623497496
vertex 44.884895885705 -70.1383974163015 12.6122818344101
vertex 44.884895885705 -71.4383974163015 12.6122818344102
endloop
endfacet
facet normal 0.608761429008734 6.37725568078973e-014 0.793353340291225
outer loop
vertex 45.6903145590247 -69.8383974163016 11.9942623497496
vertex 44.884895885705 -71.4383974163015 12.6122818344102
vertex 45.8168764010444 -71.4383974163016 11.8971480327196
endloop
endfacet
facet normal 0.608761429008734 6.37725568078973e-014 0.793353340291225
outer loop
vertex 45.6903145590247 -69.8383974163016 11.9942623497496
vertex 45.8168764010444 -71.4383974163016 11.8971480327196
vertex 45.8168764010442 -69.9383974163015 11.8971480327196
endloop
endfacet
facet normal 0.608761429008734 6.37725568078973e-014 0.793353340291225
outer loop
vertex 45.8168764010442 -69.9383974163015 11.8971480327196
vertex 45.8168764010444 -71.4383974163016 11.8971480327196
vertex 45.8168764010445 -70.1383974163015 11.8971480327196
endloop
endfacet
facet normal 0.608761429008734 6.37725568078973e-014 0.793353340291225
outer loop
vertex 45.8168764010443 -69.8383974163016 11.8971480327196
vertex 45.6903145590247 -69.8383974163016 11.9942623497496
vertex 45.8168764010442 -69.9383974163015 11.8971480327196
endloop
endfacet
facet normal -0.702798906496817 -2.27911845502076e-014 0.711388569648739
outer loop
vertex 56.5940333997507 -71.4383974163015 15.7942623497497
vertex 59.2940333997504 -69.8383974163017 18.4616611926608
vertex 56.5940333997507 -69.8383974163016 15.7942623497496
endloop
endfacet
facet normal -0.702798906496817 -2.27911845502076e-014 0.711388569648739
outer loop
vertex 59.2940333997504 -69.8383974163017 18.4616611926608
vertex 56.5940333997507 -71.4383974163015 15.7942623497497
vertex 59.2940333997505 -71.4383974163016 18.4616611926608
endloop
endfacet
facet normal 0.793353340291224 5.31526489856714e-014 0.608761429008735
outer loop
vertex 44.884895885705 -70.1383974163015 12.6122818344101
vertex 44.1697620840144 -71.4383974163015 13.5442623497496
vertex 44.884895885705 -71.4383974163015 12.6122818344102
endloop
endfacet
facet normal 0.793353340291224 5.31526489856714e-014 0.608761429008735
outer loop
vertex 44.1697620840144 -71.4383974163015 13.5442623497496
vertex 44.884895885705 -70.1383974163015 12.6122818344101
vertex 44.1697620840144 -70.1383974163015 13.5442623497496
endloop
endfacet
facet normal 0.793353340291224 5.31526489856714e-014 0.608761429008735
outer loop
vertex 44.1697620840144 -70.1383974163015 13.5442623497496
vertex 44.884895885705 -70.1383974163015 12.6122818344101
vertex 44.884895885705 -69.9383974163015 12.6122818344101
endloop
endfacet
facet normal 0.793353340291224 5.31526489856714e-014 0.608761429008735
outer loop
vertex 44.1697620840144 -70.1383974163015 13.5442623497496
vertex 44.884895885705 -69.9383974163015 12.6122818344101
vertex 44.1697620840144 -69.9383974163015 13.5442623497496
endloop
endfacet
facet normal 0.793353340291224 5.31526489856714e-014 0.608761429008735
outer loop
vertex 44.1697620840144 -69.9383974163015 13.5442623497496
vertex 44.884895885705 -69.9383974163015 12.6122818344101
vertex 44.8848958857048 -69.8383974163016 12.6122818344101
endloop
endfacet
facet normal 0.793353340291224 5.31526489856714e-014 0.608761429008735
outer loop
vertex 44.1697620840144 -69.9383974163015 13.5442623497496
vertex 44.8848958857048 -69.8383974163016 12.6122818344101
vertex 44.1697620840143 -69.8383974163015 13.5442623497497
endloop
endfacet
facet normal 0.130526192220061 1.5224866667574e-014 0.991444861373809
outer loop
vertex 46.902190698083 -69.9383974163016 11.4475961314488
vertex 48.0668764010443 -69.8383974163016 11.2942623497496
vertex 46.902190698083 -69.8383974163016 11.4475961314487
endloop
endfacet
facet normal 0.130526192220061 1.5224866667574e-014 0.991444861373809
outer loop
vertex 48.0668764010443 -69.8383974163016 11.2942623497496
vertex 46.902190698083 -69.9383974163016 11.4475961314488
vertex 46.9021906980831 -70.1383974163014 11.4475961314488
endloop
endfacet
facet normal 0.130526192220061 1.5224866667574e-014 0.991444861373809
outer loop
vertex 48.0668764010444 -71.4383974163016 11.2942623497496
vertex 46.9021906980831 -70.1383974163014 11.4475961314488
vertex 46.902190698083 -71.4383974163015 11.4475961314488
endloop
endfacet
facet normal 0.130526192220061 1.5224866667574e-014 0.991444861373809
outer loop
vertex 46.9021906980831 -70.1383974163014 11.4475961314488
vertex 48.0668764010444 -71.4383974163016 11.2942623497496
vertex 48.0668764010443 -69.8383974163016 11.2942623497496
endloop
endfacet
facet normal 0.130526192220061 1.5224866667574e-014 0.991444861373809
outer loop
vertex 48.0668764010443 -69.8383974163016 11.2942623497496
vertex 48.0668764010444 -71.4383974163016 11.2942623497496
vertex 48.0668764010443 -70.1383974163015 11.2942623497496
endloop
endfacet
facet normal 0.130526192220061 1.5224866667574e-014 0.991444861373809
outer loop
vertex 48.0668764010444 -69.9383974163015 11.2942623497496
vertex 48.0668764010443 -69.8383974163016 11.2942623497496
vertex 48.0668764010443 -70.1383974163015 11.2942623497496
endloop
endfacet
facet normal -9.10308793148605e-015 1.32741040381752e-014 1.0
outer loop
vertex 52.5668764010444 -71.4383974163015 15.7942623497496
vertex 56.5940333997507 -69.8383974163016 15.7942623497496
vertex 52.5668764010444 -69.8383974163015 15.7942623497496
endloop
endfacet
facet normal -9.10308793148605e-015 1.32741040381752e-014 1.0
outer loop
vertex 56.5940333997507 -69.8383974163016 15.7942623497496
vertex 52.5668764010444 -71.4383974163015 15.7942623497496
vertex 56.5940333997507 -71.4383974163015 15.7942623497497
endloop
endfacet
facet normal 0.996873453872938 3.33964981489667e-015 -0.0790146629647913
outer loop
vertex 63.0641894592495 -71.4383974163015 17.6199886433127
vertex 63.1309025135044 -69.8383974163017 18.4616611926609
vertex 63.1309025135044 -71.4383974163016 18.4616611926608
endloop
endfacet
facet normal 0.996873453872938 3.33964981489667e-015 -0.0790146629647913
outer loop
vertex 63.1309025135044 -69.8383974163017 18.4616611926609
vertex 63.0641894592495 -71.4383974163015 17.6199886433127
vertex 63.0641894592495 -69.8383974163017 17.6199886433128
endloop
endfacet
facet normal 0.660380674445992 -2.79057458490963e-014 0.750930998706444
outer loop
vertex 64.6328967809795 -71.4383974163014 14.7570538359475
vertex 63.9988764791947 -69.8383974163016 15.3146213824016
vertex 63.9988764791947 -71.4383974163014 15.3146213824016
endloop
endfacet
facet normal 0.660380674445992 -2.79057458490963e-014 0.750930998706444
outer loop
vertex 63.9988764791947 -69.8383974163016 15.3146213824016
vertex 64.6328967809795 -71.4383974163014 14.7570538359475
vertex 64.6328967809795 -69.8383974163016 14.7570538359475
endloop
endfacet
facet normal -1.58017585633671e-014 -1.58623114643342e-014 1.0
outer loop
vertex 59.2940333997505 -71.4383974163016 18.4616611926608
vertex 63.1309025135044 -69.8383974163017 18.4616611926609
vertex 59.2940333997504 -69.8383974163017 18.4616611926608
endloop
endfacet
facet normal -1.58017585633671e-014 -1.58623114643342e-014 1.0
outer loop
vertex 63.1309025135044 -69.8383974163017 18.4616611926609
vertex 59.2940333997505 -71.4383974163016 18.4616611926608
vertex 63.1309025135044 -71.4383974163016 18.4616611926608
endloop
endfacet
facet normal -0.608761429008694 -6.80369830989973e-014 0.793353340291256
outer loop
vertex 50.3168764010444 -69.9383974163016 11.8971480327197
vertex 50.4434382430639 -69.8383974163016 11.9942623497496
vertex 50.3168764010443 -69.8383974163017 11.8971480327196
endloop
endfacet
facet normal -0.608761429008694 -6.80369830989973e-014 0.793353340291256
outer loop
vertex 50.4434382430639 -69.8383974163016 11.9942623497496
vertex 50.3168764010444 -69.9383974163016 11.8971480327197
vertex 50.3168764010445 -70.1383974163015 11.8971480327197
endloop
endfacet
facet normal -0.608761429008694 -6.80369830989973e-014 0.793353340291256
outer loop
vertex 51.2488569163841 -71.4383974163015 12.6122818344101
vertex 50.3168764010445 -70.1383974163015 11.8971480327197
vertex 50.3168764010444 -71.4383974163015 11.8971480327196
endloop
endfacet
facet normal -0.608761429008694 -6.80369830989973e-014 0.793353340291256
outer loop
vertex 50.3168764010445 -70.1383974163015 11.8971480327197
vertex 51.2488569163841 -71.4383974163015 12.6122818344101
vertex 50.4434382430639 -69.8383974163016 11.9942623497496
endloop
endfacet
facet normal -0.608761429008694 -6.80369830989973e-014 0.793353340291256
outer loop
vertex 50.4434382430639 -69.8383974163016 11.9942623497496
vertex 51.2488569163841 -71.4383974163015 12.6122818344101
vertex 51.2488569163838 -69.8383974163016 12.6122818344101
endloop
endfacet
facet normal -0.608761429008694 -6.80369830989973e-014 0.793353340291256
outer loop
vertex 51.2488569163838 -69.8383974163016 12.6122818344101
vertex 51.2488569163841 -71.4383974163015 12.6122818344101
vertex 51.2488569163839 -70.1383974163015 12.6122818344102
endloop
endfacet
facet normal -0.608761429008694 -6.80369830989973e-014 0.793353340291256
outer loop
vertex 51.2488569163839 -69.9383974163014 12.6122818344102
vertex 51.2488569163838 -69.8383974163016 12.6122818344101
vertex 51.2488569163839 -70.1383974163015 12.6122818344102
endloop
endfacet
facet normal 0.0248971197658057 -4.17039643734783e-014 0.999690018669471
outer loop
vertex 67.0388095779739 -71.4383974163014 14.1246444383309
vertex 66.1947589682375 -69.8383974163016 14.1456653835506
vertex 66.1947589682375 -71.4383974163014 14.1456653835505
endloop
endfacet
facet normal 0.0248971197658057 -4.17039643734783e-014 0.999690018669471
outer loop
vertex 66.1947589682375 -69.8383974163016 14.1456653835506
vertex 67.0388095779739 -71.4383974163014 14.1246444383309
vertex 67.0388095779739 -69.8383974163016 14.124644438331
endloop
endfacet
facet normal -1.0 -4.47900203509176e-014 -7.05970543536266e-015
outer loop
vertex 43.5668764010442 -69.8383974163016 15.7942623497495
vertex 43.5668764010444 -71.4383974163014 8.59426234974969
vertex 43.5668764010444 -71.4383974163016 15.7942623497496
endloop
endfacet
facet normal -1.0 -4.47900203509176e-014 -7.05970543536266e-015
outer loop
vertex 43.5668764010444 -71.4383974163014 8.59426234974969
vertex 43.5668764010442 -69.8383974163016 15.7942623497495
vertex 43.5668764010444 -69.8383974163015 8.59426234974968
endloop
endfacet
facet normal -1.0 -4.47900203509176e-014 -7.05970543536266e-015
outer loop
vertex 43.5668764010444 -69.8383974163015 8.59426234974968
vertex 43.5668764010442 -69.8383974163016 15.7942623497495
vertex 43.5668764010444 -69.8383974163015 11.9942623497496
endloop
endfacet
facet normal -1.2778133510395e-014 -1.0 -9.69252124156161e-015
outer loop
vertex 91.5668764010487 -30.4383974163015 10.4211902883441
vertex 87.5668764010444 -30.4383974163013 1.99426234974974
vertex 91.5668764010443 -30.4383974163013 1.99426234974969
endloop
endfacet
facet normal -1.2778133510395e-014 -1.0 -9.69252124156161e-015
outer loop
vertex 87.5668764010444 -30.4383974163013 1.99426234974974
vertex 91.5668764010487 -30.4383974163015 10.4211902883441
vertex 87.5668764010444 -30.4383974163014 11.6942623497497
endloop
endfacet
facet normal 0.303278242708559 1.331960378368e-015 0.952902045070535
outer loop
vertex 91.5668764010487 -30.4383974163015 10.4211902883441
vertex 87.5668764010444 -14.1925030423447 11.6942623497497
vertex 87.5668764010444 -30.4383974163014 11.6942623497497
endloop
endfacet
facet normal 0.303278242708559 1.331960378368e-015 0.952902045070535
outer loop
vertex 87.5668764010444 -14.1925030423447 11.6942623497497
vertex 91.5668764010487 -30.4383974163015 10.4211902883441
vertex 91.5668764010487 -14.1883974163014 10.4211902883441
endloop
endfacet
facet normal -0.624695047554705 -0.780868809442806 2.03083315243233e-013
outer loop
vertex 94.0668764010443 -32.4383974163015 1.9942623497498
vertex 91.5668764010487 -30.4383974163015 10.4211902883441
vertex 91.5668764010443 -30.4383974163013 1.99426234974969
endloop
endfacet
facet normal -0.624695047554705 -0.780868809442806 2.03083315243233e-013
outer loop
vertex 91.5668764010487 -30.4383974163015 10.4211902883441
vertex 94.0668764010443 -32.4383974163015 1.9942623497498
vertex 94.0668764010443 -32.4383974163015 7.9942623497498
endloop
endfacet
facet normal 0.696542963938873 1.56241101980821e-015 0.717515086522402
outer loop
vertex 94.0668764010443 -32.4383974163015 7.9942623497498
vertex 91.5668764010487 -14.1883974163014 10.4211902883441
vertex 91.5668764010487 -30.4383974163015 10.4211902883441
endloop
endfacet
facet normal 0.696542963938873 1.56241101980821e-015 0.717515086522402
outer loop
vertex 91.5668764010487 -14.1883974163014 10.4211902883441
vertex 94.0668764010443 -32.4383974163015 7.9942623497498
vertex 94.0668764010444 -12.1883974163013 7.99426234974974
endloop
endfacet
facet normal -0.624695047554441 0.780868809443017 1.13103136437635e-012
outer loop
vertex 91.5668764010487 -14.1883974163014 10.4211902883441
vertex 94.0668764010444 -12.1883974163013 7.99426234974974
vertex 91.5668764010444 -14.1883974163013 7.99426234974973
endloop
endfacet
facet normal -0.0010264059701417 0.999999473245254 1.34264664619136e-014
outer loop
vertex 87.5668764010445 -14.1925030423445 7.99426234974985
vertex 91.5668764010487 -14.1883974163014 10.4211902883441
vertex 91.5668764010444 -14.1883974163013 7.99426234974973
endloop
endfacet
facet normal -0.0010264059701417 0.999999473245254 1.34264664619136e-014
outer loop
vertex 91.5668764010487 -14.1883974163014 10.4211902883441
vertex 87.5668764010445 -14.1925030423445 7.99426234974985
vertex 87.5668764010444 -14.1925030423447 11.6942623497497
endloop
endfacet
facet normal -1.0 5.36921618277121e-015 -1.47390248154494e-015
outer loop
vertex 86.0668764010444 -10.3383974163014 1.99426234974975
vertex 86.0668764010443 -27.3383974163014 -0.00573765025030598
vertex 86.0668764010443 -27.3383974163014 1.99426234974976
endloop
endfacet
facet normal -1.0 5.36921618277121e-015 -1.47390248154494e-015
outer loop
vertex 86.0668764010443 -27.3383974163014 -0.00573765025030598
vertex 86.0668764010444 -10.3383974163014 1.99426234974975
vertex 86.0668764010444 -12.3383974163014 -0.00573765025026301
endloop
endfacet
facet normal 1.0 -0.0 -0.0
outer loop
vertex 34.2668764010444 -10.3383974163013 1.99426234974975
vertex 34.2668764010444 -12.0383974163014 8.59426234974975
vertex 34.2668764010444 -12.0383974163014 1.99426234974975
endloop
endfacet
facet normal 1.0 -0.0 -0.0
outer loop
vertex 34.2668764010444 -12.0383974163014 8.59426234974975
vertex 34.2668764010444 -10.3383974163013 1.99426234974975
vertex 34.2668764010444 -10.3383974163014 8.59426234974975
endloop
endfacet
facet normal -0.707106781186554 0.707106781186541 -4.00633930186469e-015
outer loop
vertex 86.0668764010443 -49.4383974163013 1.9942623497497
vertex 83.0668764010444 -52.4383974163013 -0.00573765025038953
vertex 83.0668764010444 -52.4383974163013 1.99426234974967
endloop
endfacet
facet normal -0.707106781186554 0.707106781186541 -4.00633930186469e-015
outer loop
vertex 83.0668764010444 -52.4383974163013 -0.00573765025038953
vertex 86.0668764010443 -49.4383974163013 1.9942623497497
vertex 86.0668764010443 -49.4383974163013 -0.00573765025037412
endloop
endfacet
facet normal 1.82298912292877e-015 -3.9265763645949e-015 1.0
outer loop
vertex 94.0668764010444 -71.4383974163013 8.59426234974958
vertex 69.8125624036317 -69.8383974163015 8.59426234974963
vertex 69.8125624036317 -71.4383974163014 8.59426234974964
endloop
endfacet
facet normal 1.82298912292877e-015 -3.9265763645949e-015 1.0
outer loop
vertex 69.8125624036317 -69.8383974163015 8.59426234974963
vertex 94.0668764010444 -71.4383974163013 8.59426234974958
vertex 90.4668764010444 -69.8383974163014 8.59426234974961
endloop
endfacet
facet normal 1.82298912292877e-015 -3.9265763645949e-015 1.0
outer loop
vertex 90.4668764010444 -69.8383974163014 8.59426234974961
vertex 94.0668764010444 -71.4383974163013 8.59426234974958
vertex 91.4668764010444 -68.8383974163014 8.5942623497496
endloop
endfacet
facet normal 1.82298912292877e-015 -3.9265763645949e-015 1.0
outer loop
vertex 91.4668764010444 -68.8383974163014 8.5942623497496
vertex 94.0668764010444 -71.4383974163013 8.59426234974958
vertex 94.0668764010444 -52.3328781282505 8.59426234974967
endloop
endfacet
facet normal 1.82298912292877e-015 -3.9265763645949e-015 1.0
outer loop
vertex 94.0668764010444 -52.3328781282505 8.59426234974967
vertex 91.4668764010444 -52.3328781282505 8.59426234974966
vertex 91.4668764010444 -68.8383974163014 8.5942623497496
endloop
endfacet
facet normal 1.0 1.18079658135715e-015 -1.82298912292877e-015
outer loop
vertex 94.0668764010444 -71.4383974163013 1.99426234974958
vertex 94.0668764010444 -52.3328781282505 8.59426234974967
vertex 94.0668764010444 -71.4383974163013 8.59426234974958
endloop
endfacet
facet normal 1.0 1.18079658135715e-015 -1.82298912292877e-015
outer loop
vertex 94.0668764010444 -52.3328781282505 8.59426234974967
vertex 94.0668764010444 -71.4383974163013 1.99426234974958
vertex 94.0668764010443 -52.3328781282505 1.99426234974967
endloop
endfacet
facet normal -2.071082936943e-015 1.0 5.09179651416844e-015
outer loop
vertex 90.4668764010443 -52.3328781282505 1.99426234974966
vertex 91.4668764010444 -52.3328781282505 8.59426234974966
vertex 94.0668764010443 -52.3328781282505 1.99426234974967
endloop
endfacet
facet normal -2.071082936943e-015 1.0 5.09179651416844e-015
outer loop
vertex 91.4668764010444 -52.3328781282505 8.59426234974966
vertex 90.4668764010443 -52.3328781282505 1.99426234974966
vertex 90.4668764010444 -52.3328781282506 11.9942623497496
endloop
endfacet
facet normal -2.071082936943e-015 1.0 5.09179651416844e-015
outer loop
vertex 91.4668764010444 -52.3328781282505 8.59426234974966
vertex 90.4668764010444 -52.3328781282506 11.9942623497496
vertex 91.4668764010444 -52.3328781282506 11.9942623497496
endloop
endfacet
facet normal -2.071082936943e-015 1.0 5.09179651416844e-015
outer loop
vertex 94.0668764010444 -52.3328781282505 8.59426234974967
vertex 94.0668764010443 -52.3328781282505 1.99426234974967
vertex 91.4668764010444 -52.3328781282505 8.59426234974966
endloop
endfacet
facet normal 1.0 2.39697151016571e-016 -7.98990503388706e-017
outer loop
vertex 35.3668764010443 -12.3383974163014 -0.00573765025028751
vertex 35.3668764010443 -27.3383974163014 1.99426234974976
vertex 35.3668764010443 -27.3383974163014 -0.00573765025030598
endloop
endfacet
facet normal 1.0 2.39697151016571e-016 -7.98990503388706e-017
outer loop
vertex 35.3668764010443 -27.3383974163014 1.99426234974976
vertex 35.3668764010443 -12.3383974163014 -0.00573765025028751
vertex 35.3668764010443 -10.3383974163014 1.99426234974975
endloop
endfacet
facet normal -1.0 2.76919785520252e-016 9.93292659332586e-016
outer loop
vertex -0.933123598955657 -10.3383974163013 8.59426234974978
vertex -0.93312359895568 -71.4383974163013 1.9942623497498
vertex -0.933123598955674 -71.4383974163013 8.59426234974979
endloop
endfacet
facet normal -1.0 2.76919785520252e-016 9.93292659332586e-016
outer loop
vertex -0.93312359895568 -71.4383974163013 1.9942623497498
vertex -0.933123598955657 -10.3383974163013 8.59426234974978
vertex -0.933123598955663 -10.3383974163013 1.99426234974978
endloop
endfacet
facet normal 0.0 1.0 0.0
outer loop
vertex 35.3668764010443 -27.3383974163014 1.99426234974976
vertex 86.0668764010443 -27.3383974163014 -0.00573765025030598
vertex 35.3668764010443 -27.3383974163014 -0.00573765025030598
endloop
endfacet
facet normal 0.0 1.0 0.0
outer loop
vertex 86.0668764010443 -27.3383974163014 -0.00573765025030598
vertex 35.3668764010443 -27.3383974163014 1.99426234974976
vertex 86.0668764010443 -27.3383974163014 1.99426234974976
endloop
endfacet
facet normal 7.7494442933431e-016 -1.0 -1.31663399633457e-014
outer loop
vertex 69.8125624036317 -71.4383974163014 8.59426234974964
vertex 67.865055373326 -71.4383974163014 14.298371804042
vertex 43.5668764010444 -71.4383974163014 8.59426234974969
endloop
endfacet
facet normal 7.7494442933431e-016 -1.0 -1.31663399633457e-014
outer loop
vertex 67.865055373326 -71.4383974163014 14.298371804042
vertex 69.8125624036317 -71.4383974163014 8.59426234974964
vertex 68.6291696590008 -71.4383974163014 14.6575273001185
endloop
endfacet
facet normal 7.7494442933431e-016 -1.0 -1.31663399633457e-014
outer loop
vertex 68.6291696590008 -71.4383974163014 14.6575273001185
vertex 69.8125624036317 -71.4383974163014 8.59426234974964
vertex 69.2901589905521 -71.4383974163014 15.1828428391134
endloop
endfacet
facet normal 7.7494442933431e-016 -1.0 -1.31663399633457e-014
outer loop
vertex 69.2901589905521 -71.4383974163014 15.1828428391134
vertex 69.8125624036317 -71.4383974163014 8.59426234974964
vertex 69.8125624036317 -71.4383974163015 15.8461361271368
endloop
endfacet
facet normal 7.7494442933431e-016 -1.0 -1.31663399633457e-014
outer loop
vertex 43.5668764010444 -71.4383974163014 8.59426234974969
vertex 67.865055373326 -71.4383974163014 14.298371804042
vertex 67.0388095779739 -71.4383974163014 14.1246444383309
endloop
endfacet
facet normal 7.7494442933431e-016 -1.0 -1.31663399633457e-014
outer loop
vertex 43.5668764010444 -71.4383974163014 8.59426234974969
vertex 67.0388095779739 -71.4383974163014 14.1246444383309
vertex 49.2315621040057 -71.4383974163016 11.4475961314488
endloop
endfacet
facet normal 7.7494442933431e-016 -1.0 -1.31663399633457e-014
outer loop
vertex 43.5668764010444 -71.4383974163014 8.59426234974969
vertex 49.2315621040057 -71.4383974163016 11.4475961314488
vertex 48.0668764010444 -71.4383974163016 11.2942623497496
endloop
endfacet
facet normal 7.7494442933431e-016 -1.0 -1.31663399633457e-014
outer loop
vertex 49.2315621040057 -71.4383974163016 11.4475961314488
vertex 67.0388095779739 -71.4383974163014 14.1246444383309
vertex 50.3168764010444 -71.4383974163015 11.8971480327196
endloop
endfacet
facet normal 7.7494442933431e-016 -1.0 -1.31663399633457e-014
outer loop
vertex 50.3168764010444 -71.4383974163015 11.8971480327196
vertex 67.0388095779739 -71.4383974163014 14.1246444383309
vertex 51.2488569163841 -71.4383974163015 12.6122818344101
endloop
endfacet
facet normal 7.7494442933431e-016 -1.0 -1.31663399633457e-014
outer loop
vertex 51.2488569163841 -71.4383974163015 12.6122818344101
vertex 67.0388095779739 -71.4383974163014 14.1246444383309
vertex 51.9639907180743 -71.4383974163014 13.5442623497497
endloop
endfacet
facet normal 7.7494442933431e-016 -1.0 -1.31663399633457e-014
outer loop
vertex 51.9639907180743 -71.4383974163014 13.5442623497497
vertex 66.1947589682375 -71.4383974163014 14.1456653835505
vertex 52.4135426193453 -71.4383974163015 14.6295766467882
endloop
endfacet
facet normal 7.7494442933431e-016 -1.0 -1.31663399633457e-014
outer loop
vertex 66.1947589682375 -71.4383974163014 14.1456653835505
vertex 51.9639907180743 -71.4383974163014 13.5442623497497
vertex 67.0388095779739 -71.4383974163014 14.1246444383309
endloop
endfacet
facet normal 7.7494442933431e-016 -1.0 -1.31663399633457e-014
outer loop
vertex 52.4135426193453 -71.4383974163015 14.6295766467882
vertex 66.1947589682375 -71.4383974163014 14.1456653835505
vertex 65.378185437714 -71.4383974163014 14.3603069013948
endloop
endfacet
facet normal 7.7494442933431e-016 -1.0 -1.31663399633457e-014
outer loop
vertex 52.4135426193453 -71.4383974163015 14.6295766467882
vertex 65.378185437714 -71.4383974163014 14.3603069013948
vertex 64.6328967809795 -71.4383974163014 14.7570538359475
endloop
endfacet
facet normal 7.7494442933431e-016 -1.0 -1.31663399633457e-014
outer loop
vertex 52.4135426193453 -71.4383974163015 14.6295766467882
vertex 64.6328967809795 -71.4383974163014 14.7570538359475
vertex 52.5668764010444 -71.4383974163015 15.7942623497496
endloop
endfacet
facet normal 7.7494442933431e-016 -1.0 -1.31663399633457e-014
outer loop
vertex 52.5668764010444 -71.4383974163015 15.7942623497496
vertex 64.6328967809795 -71.4383974163014 14.7570538359475
vertex 63.9988764791947 -71.4383974163014 15.3146213824016
endloop
endfacet
facet normal 7.7494442933431e-016 -1.0 -1.31663399633457e-014
outer loop
vertex 52.5668764010444 -71.4383974163015 15.7942623497496
vertex 63.9988764791947 -71.4383974163014 15.3146213824016
vertex 56.5940333997507 -71.4383974163015 15.7942623497497
endloop
endfacet
facet normal 7.7494442933431e-016 -1.0 -1.31663399633457e-014
outer loop
vertex 56.5940333997507 -71.4383974163015 15.7942623497497
vertex 63.9988764791947 -71.4383974163014 15.3146213824016
vertex 63.5101386536843 -71.4383974163014 16.0030969809884
endloop
endfacet
facet normal 7.7494442933431e-016 -1.0 -1.31663399633457e-014
outer loop
vertex 56.5940333997507 -71.4383974163015 15.7942623497497
vertex 63.5101386536843 -71.4383974163014 16.0030969809884
vertex 59.2940333997505 -71.4383974163016 18.4616611926608
endloop
endfacet
facet normal 7.7494442933431e-016 -1.0 -1.31663399633457e-014
outer loop
vertex 59.2940333997505 -71.4383974163016 18.4616611926608
vertex 63.5101386536843 -71.4383974163014 16.0030969809884
vertex 63.1929032656168 -71.4383974163015 16.7855450754278
endloop
endfacet
facet normal 7.7494442933431e-016 -1.0 -1.31663399633457e-014
outer loop
vertex 59.2940333997505 -71.4383974163016 18.4616611926608
vertex 63.1929032656168 -71.4383974163015 16.7855450754278
vertex 63.0641894592495 -71.4383974163015 17.6199886433127
endloop
endfacet
facet normal 7.7494442933431e-016 -1.0 -1.31663399633457e-014
outer loop
vertex 59.2940333997505 -71.4383974163016 18.4616611926608
vertex 63.0641894592495 -71.4383974163015 17.6199886433127
vertex 63.1309025135044 -71.4383974163016 18.4616611926608
endloop
endfacet
facet normal 7.7494442933431e-016 -1.0 -1.31663399633457e-014
outer loop
vertex 43.5668764010444 -71.4383974163014 8.59426234974969
vertex 43.7202101827436 -71.4383974163015 14.6295766467883
vertex 43.5668764010444 -71.4383974163016 15.7942623497496
endloop
endfacet
facet normal 7.7494442933431e-016 -1.0 -1.31663399633457e-014
outer loop
vertex 43.7202101827436 -71.4383974163015 14.6295766467883
vertex 43.5668764010444 -71.4383974163014 8.59426234974969
vertex 44.1697620840144 -71.4383974163015 13.5442623497496
endloop
endfacet
facet normal 7.7494442933431e-016 -1.0 -1.31663399633457e-014
outer loop
vertex 44.1697620840144 -71.4383974163015 13.5442623497496
vertex 43.5668764010444 -71.4383974163014 8.59426234974969
vertex 44.884895885705 -71.4383974163015 12.6122818344102
endloop
endfacet
facet normal 7.7494442933431e-016 -1.0 -1.31663399633457e-014
outer loop
vertex 44.884895885705 -71.4383974163015 12.6122818344102
vertex 43.5668764010444 -71.4383974163014 8.59426234974969
vertex 45.8168764010444 -71.4383974163016 11.8971480327196
endloop
endfacet
facet normal 7.7494442933431e-016 -1.0 -1.31663399633457e-014
outer loop
vertex 45.8168764010444 -71.4383974163016 11.8971480327196
vertex 43.5668764010444 -71.4383974163014 8.59426234974969
vertex 46.902190698083 -71.4383974163015 11.4475961314488
endloop
endfacet
facet normal 7.7494442933431e-016 -1.0 -1.31663399633457e-014
outer loop
vertex 46.902190698083 -71.4383974163015 11.4475961314488
vertex 43.5668764010444 -71.4383974163014 8.59426234974969
vertex 48.0668764010444 -71.4383974163016 11.2942623497496
endloop
endfacet
facet normal 7.7494442933431e-016 -1.0 -1.31663399633457e-014
outer loop
vertex 94.0668764010444 -71.4383974163013 8.59426234974958
vertex -0.93312359895568 -71.4383974163013 1.9942623497498
vertex 94.0668764010444 -71.4383974163013 1.99426234974958
endloop
endfacet
facet normal 7.7494442933431e-016 -1.0 -1.31663399633457e-014
outer loop
vertex -0.93312359895568 -71.4383974163013 1.9942623497498
vertex 94.0668764010444 -71.4383974163013 8.59426234974958
vertex -0.933123598955674 -71.4383974163013 8.59426234974979
endloop
endfacet
facet normal 7.7494442933431e-016 -1.0 -1.31663399633457e-014
outer loop
vertex -0.933123598955674 -71.4383974163013 8.59426234974979
vertex 94.0668764010444 -71.4383974163013 8.59426234974958
vertex 69.8125624036317 -71.4383974163014 8.59426234974964
endloop
endfacet
facet normal 7.7494442933431e-016 -1.0 -1.31663399633457e-014
outer loop
vertex -0.933123598955674 -71.4383974163013 8.59426234974979
vertex 69.8125624036317 -71.4383974163014 8.59426234974964
vertex 43.5668764010444 -71.4383974163014 8.59426234974969
endloop
endfacet
facet normal -6.25306535595808e-016 1.77618084389038e-015 -1.0
outer loop
vertex 86.0668764010443 -49.4383974163013 -0.00573765025037412
vertex 83.0668764010444 -59.4383974163013 -0.0057376502504051
vertex 83.0668764010444 -52.4383974163013 -0.00573765025038953
endloop
endfacet
facet normal -6.25306535595808e-016 1.77618084389038e-015 -1.0
outer loop
vertex 35.3668764010443 -12.3383974163014 -0.00573765025028751
vertex 7.36687640104432 -28.7383974163014 -0.00573765025030937
vertex 1.06687640104433 -12.3383974163014 -0.00573765025022613
endloop
endfacet
facet normal -6.25306535595808e-016 1.77618084389038e-015 -1.0
outer loop
vertex 7.36687640104432 -28.7383974163014 -0.00573765025030937
vertex 35.3668764010443 -12.3383974163014 -0.00573765025028751
vertex 35.3668764010443 -27.3383974163014 -0.00573765025030598
endloop
endfacet
facet normal -6.25306535595808e-016 1.77618084389038e-015 -1.0
outer loop
vertex 7.36687640104432 -28.7383974163014 -0.00573765025030937
vertex 35.3668764010443 -27.3383974163014 -0.00573765025030598
vertex 83.0668764010443 -28.7383974163014 -0.00573765025030091
endloop
endfacet
facet normal -6.25306535595808e-016 1.77618084389038e-015 -1.0
outer loop
vertex 83.0668764010443 -28.7383974163014 -0.00573765025030091
vertex 35.3668764010443 -27.3383974163014 -0.00573765025030598
vertex 86.0668764010443 -27.3383974163014 -0.00573765025030598
endloop
endfacet
facet normal -6.25306535595808e-016 1.77618084389038e-015 -1.0
outer loop
vertex 83.0668764010443 -28.7383974163014 -0.00573765025030091
vertex 86.0668764010443 -27.3383974163014 -0.00573765025030598
vertex 83.0668764010443 -35.7383974163014 -0.00573765025030655
endloop
endfacet
facet normal -6.25306535595808e-016 1.77618084389038e-015 -1.0
outer loop
vertex 83.0668764010443 -35.7383974163014 -0.00573765025030655
vertex 86.0668764010443 -27.3383974163014 -0.00573765025030598
vertex 86.0668764010443 -38.7383974163014 -0.00573765025034695
endloop
endfacet
facet normal -6.25306535595808e-016 1.77618084389038e-015 -1.0
outer loop
vertex 86.0668764010443 -38.7383974163014 -0.00573765025034695
vertex 86.0668764010443 -27.3383974163014 -0.00573765025030598
vertex 86.0668764010444 -12.3383974163014 -0.00573765025026301
endloop
endfacet
facet normal -6.25306535595808e-016 1.77618084389038e-015 -1.0
outer loop
vertex 86.0668764010443 -38.7383974163014 -0.00573765025034695
vertex 86.0668764010444 -12.3383974163014 -0.00573765025026301
vertex 86.0668764010443 -49.4383974163013 -0.00573765025037412
endloop
endfacet
facet normal -6.25306535595808e-016 1.77618084389038e-015 -1.0
outer loop
vertex 1.06687640104432 -69.4383974163012 -0.00573765025030227
vertex 7.36687640104432 -59.4383974163013 -0.00573765025035363
vertex 92.0668764010444 -69.4383974163013 -0.00573765025041507
endloop
endfacet
facet normal -6.25306535595808e-016 1.77618084389038e-015 -1.0
outer loop
vertex 7.36687640104432 -59.4383974163013 -0.00573765025035363
vertex 1.06687640104432 -69.4383974163012 -0.00573765025030227
vertex 1.06687640104433 -12.3383974163014 -0.00573765025022613
endloop
endfacet
facet normal -6.25306535595808e-016 1.77618084389038e-015 -1.0
outer loop
vertex 7.36687640104432 -59.4383974163013 -0.00573765025035363
vertex 1.06687640104433 -12.3383974163014 -0.00573765025022613
vertex 7.36687640104432 -28.7383974163014 -0.00573765025030937
endloop
endfacet
facet normal -6.25306535595808e-016 1.77618084389038e-015 -1.0
outer loop
vertex 92.0668764010444 -69.4383974163013 -0.00573765025041507
vertex 7.36687640104432 -59.4383974163013 -0.00573765025035363
vertex 83.0668764010444 -59.4383974163013 -0.0057376502504051
endloop
endfacet
facet normal -6.25306535595808e-016 1.77618084389038e-015 -1.0
outer loop
vertex 92.0668764010444 -69.4383974163013 -0.00573765025041507
vertex 83.0668764010444 -59.4383974163013 -0.0057376502504051
vertex 86.0668764010443 -49.4383974163013 -0.00573765025037412
endloop
endfacet
facet normal -6.25306535595808e-016 1.77618084389038e-015 -1.0
outer loop
vertex 92.0668764010444 -69.4383974163013 -0.00573765025041507
vertex 86.0668764010443 -49.4383974163013 -0.00573765025037412
vertex 86.0668764010444 -12.3383974163014 -0.00573765025026301
endloop
endfacet
facet normal -6.25306535595808e-016 1.77618084389038e-015 -1.0
outer loop
vertex 92.0668764010444 -69.4383974163013 -0.00573765025041507
vertex 86.0668764010444 -12.3383974163014 -0.00573765025026301
vertex 92.0668764010444 -12.3383974163014 -0.00573765025026561
endloop
endfacet
facet normal -2.63172900355209e-016 0.707106781186544 -0.707106781186551
outer loop
vertex 34.2668764010444 -10.3383974163013 1.99426234974975
vertex 1.06687640104433 -12.3383974163014 -0.00573765025022613
vertex -0.933123598955663 -10.3383974163013 1.99426234974978
endloop
endfacet
facet normal -2.63172900355209e-016 0.707106781186544 -0.707106781186551
outer loop
vertex 1.06687640104433 -12.3383974163014 -0.00573765025022613
vertex 34.2668764010444 -10.3383974163013 1.99426234974975
vertex 35.3668764010443 -12.3383974163014 -0.00573765025028751
endloop
endfacet
facet normal -2.63172900355209e-016 0.707106781186544 -0.707106781186551
outer loop
vertex 35.3668764010443 -12.3383974163014 -0.00573765025028751
vertex 34.2668764010444 -10.3383974163013 1.99426234974975
vertex 35.3668764010443 -10.3383974163014 1.99426234974975
endloop
endfacet
facet normal 2.09167113645026e-016 -2.37890496962824e-015 1.0
outer loop
vertex 2.08108996341743 -68.8383974163014 1.99426234974964
vertex 1.66687640104437 -13.0383974163014 1.99426234974977
vertex 1.66687640104437 -68.4241838539283 1.99426234974973
endloop
endfacet
facet normal 2.09167113645026e-016 -2.37890496962824e-015 1.0
outer loop
vertex 87.5668764010444 -10.3383974163014 1.9942623497498
vertex 86.0668764010444 -10.3383974163014 1.99426234974975
vertex 87.5668764010444 -30.4383974163013 1.99426234974974
endloop
endfacet
facet normal 2.09167113645026e-016 -2.37890496962824e-015 1.0
outer loop
vertex 94.0668764010443 -52.3328781282505 1.99426234974967
vertex 91.5668764010443 -50.9383974163015 1.99426234974965
vertex 90.4668764010443 -52.3328781282505 1.99426234974966
endloop
endfacet
facet normal 2.09167113645026e-016 -2.37890496962824e-015 1.0
outer loop
vertex 91.5668764010443 -50.9383974163015 1.99426234974965
vertex 94.0668764010443 -52.3328781282505 1.99426234974967
vertex 94.0668764010443 -50.9383974163015 1.99426234974969
endloop
endfacet
facet normal 2.09167113645026e-016 -2.37890496962824e-015 1.0
outer loop
vertex 44.1695757462017 -68.8383974163014 1.99426234974963
vertex 7.36687640104432 -59.4383974163013 1.99426234974965
vertex 2.08108996341743 -68.8383974163014 1.99426234974964
endloop
endfacet
facet normal 2.09167113645026e-016 -2.37890496962824e-015 1.0
outer loop
vertex 7.36687640104432 -59.4383974163013 1.99426234974965
vertex 44.1695757462017 -68.8383974163014 1.99426234974963
vertex 83.0668764010444 -59.4383974163013 1.99426234974959
endloop
endfacet
facet normal 2.09167113645026e-016 -2.37890496962824e-015 1.0
outer loop
vertex 83.0668764010444 -59.4383974163013 1.99426234974959
vertex 44.1695757462017 -68.8383974163014 1.99426234974963
vertex 45.4097571558252 -69.8383974163015 1.99426234974966
endloop
endfacet
facet normal 2.09167113645026e-016 -2.37890496962824e-015 1.0
outer loop
vertex 83.0668764010444 -59.4383974163013 1.99426234974959
vertex 45.4097571558252 -69.8383974163015 1.99426234974966
vertex 69.0809648384266 -68.8383974163015 1.99426234974962
endloop
endfacet
facet normal 2.09167113645026e-016 -2.37890496962824e-015 1.0
outer loop
vertex 69.0809648384266 -68.8383974163015 1.99426234974962
vertex 45.4097571558252 -69.8383974163015 1.99426234974966
vertex 69.0809648384266 -69.8383974163015 1.99426234974963
endloop
endfacet
facet normal 2.09167113645026e-016 -2.37890496962824e-015 1.0
outer loop
vertex 83.0668764010444 -59.4383974163013 1.99426234974959
vertex 69.0809648384266 -68.8383974163015 1.99426234974962
vertex 90.0526628386713 -68.8383974163014 1.9942623497496
endloop
endfacet
facet normal 2.09167113645026e-016 -2.37890496962824e-015 1.0
outer loop
vertex 83.0668764010444 -59.4383974163013 1.99426234974959
vertex 90.0526628386713 -68.8383974163014 1.9942623497496
vertex 83.0668764010444 -54.4383974163013 1.99426234974961
endloop
endfacet
facet normal 2.09167113645026e-016 -2.37890496962824e-015 1.0
outer loop
vertex 83.0668764010444 -54.4383974163013 1.99426234974961
vertex 90.0526628386713 -68.8383974163014 1.9942623497496
vertex 83.0668764010444 -52.4383974163013 1.99426234974967
endloop
endfacet
facet normal 2.09167113645026e-016 -2.37890496962824e-015 1.0
outer loop
vertex 83.0668764010444 -52.4383974163013 1.99426234974967
vertex 90.0526628386713 -68.8383974163014 1.9942623497496
vertex 86.0668764010443 -49.4383974163013 1.9942623497497
endloop
endfacet
facet normal 2.09167113645026e-016 -2.37890496962824e-015 1.0
outer loop
vertex 86.0668764010443 -49.4383974163013 1.9942623497497
vertex 90.0526628386713 -68.8383974163014 1.9942623497496
vertex 86.0668764010443 -38.7383974163014 1.9942623497497
endloop
endfacet
facet normal 2.09167113645026e-016 -2.37890496962824e-015 1.0
outer loop
vertex 86.0668764010443 -38.7383974163014 1.9942623497497
vertex 90.0526628386713 -68.8383974163014 1.9942623497496
vertex 86.0668764010444 -10.3383974163014 1.99426234974975
endloop
endfacet
facet normal 2.09167113645026e-016 -2.37890496962824e-015 1.0
outer loop
vertex 86.0668764010444 -10.3383974163014 1.99426234974975
vertex 90.0526628386713 -68.8383974163014 1.9942623497496
vertex 87.5668764010444 -30.4383974163013 1.99426234974974
endloop
endfacet
facet normal 2.09167113645026e-016 -2.37890496962824e-015 1.0
outer loop
vertex 87.5668764010444 -30.4383974163013 1.99426234974974
vertex 90.0526628386713 -68.8383974163014 1.9942623497496
vertex 90.4668764010443 -52.3328781282505 1.99426234974966
endloop
endfacet
facet normal 2.09167113645026e-016 -2.37890496962824e-015 1.0
outer loop
vertex 87.5668764010444 -30.4383974163013 1.99426234974974
vertex 90.4668764010443 -52.3328781282505 1.99426234974966
vertex 91.5668764010443 -30.4383974163013 1.99426234974969
endloop
endfacet
facet normal 2.09167113645026e-016 -2.37890496962824e-015 1.0
outer loop
vertex 90.4668764010443 -52.3328781282505 1.99426234974966
vertex 90.0526628386713 -68.8383974163014 1.9942623497496
vertex 90.4668764010443 -68.4241838539283 1.99426234974963
endloop
endfacet
facet normal 2.09167113645026e-016 -2.37890496962824e-015 1.0
outer loop
vertex 91.5668764010443 -30.4383974163013 1.99426234974969
vertex 90.4668764010443 -52.3328781282505 1.99426234974966
vertex 91.5668764010443 -50.9383974163015 1.99426234974965
endloop
endfacet
facet normal 2.09167113645026e-016 -2.37890496962824e-015 1.0
outer loop
vertex 91.5668764010443 -30.4383974163013 1.99426234974969
vertex 91.5668764010443 -50.9383974163015 1.99426234974965
vertex 91.5668764010443 -36.8383974163015 1.99426234974965
endloop
endfacet
facet normal 2.09167113645026e-016 -2.37890496962824e-015 1.0
outer loop
vertex 91.5668764010443 -30.4383974163013 1.99426234974969
vertex 91.5668764010443 -36.8383974163015 1.99426234974965
vertex 94.0668764010443 -36.8383974163015 1.99426234974965
endloop
endfacet
facet normal 2.09167113645026e-016 -2.37890496962824e-015 1.0
outer loop
vertex 91.5668764010443 -30.4383974163013 1.99426234974969
vertex 94.0668764010443 -36.8383974163015 1.99426234974965
vertex 94.0668764010443 -32.4383974163015 1.9942623497498
endloop
endfacet
facet normal 2.09167113645026e-016 -2.37890496962824e-015 1.0
outer loop
vertex 86.0668764010443 -38.7383974163014 1.9942623497497
vertex 83.0668764010443 -28.7383974163014 1.9942623497497
vertex 83.0668764010443 -35.7383974163014 1.99426234974968
endloop
endfacet
facet normal 2.09167113645026e-016 -2.37890496962824e-015 1.0
outer loop
vertex 83.0668764010443 -28.7383974163014 1.9942623497497
vertex 86.0668764010443 -38.7383974163014 1.9942623497497
vertex 86.0668764010443 -27.3383974163014 1.99426234974976
endloop
endfacet
facet normal 2.09167113645026e-016 -2.37890496962824e-015 1.0
outer loop
vertex 86.0668764010443 -27.3383974163014 1.99426234974976
vertex 86.0668764010443 -38.7383974163014 1.9942623497497
vertex 86.0668764010444 -10.3383974163014 1.99426234974975
endloop
endfacet
facet normal 2.09167113645026e-016 -2.37890496962824e-015 1.0
outer loop
vertex 1.66687640104437 -13.0383974163014 1.99426234974977
vertex 1.66687640104437 -12.0383974163014 1.99426234974978
vertex 0.66687640104438 -13.0383974163014 1.99426234974978
endloop
endfacet
facet normal 2.09167113645026e-016 -2.37890496962824e-015 1.0
outer loop
vertex 1.66687640104437 -12.0383974163014 1.99426234974978
vertex 1.66687640104437 -13.0383974163014 1.99426234974977
vertex 34.2668764010444 -12.0383974163014 1.99426234974975
endloop
endfacet
facet normal 2.09167113645026e-016 -2.37890496962824e-015 1.0
outer loop
vertex 34.2668764010444 -12.0383974163014 1.99426234974975
vertex 1.66687640104437 -13.0383974163014 1.99426234974977
vertex 7.36687640104432 -28.7383974163014 1.99426234974969
endloop
endfacet
facet normal 2.09167113645026e-016 -2.37890496962824e-015 1.0
outer loop
vertex 7.36687640104432 -28.7383974163014 1.99426234974969
vertex 1.66687640104437 -13.0383974163014 1.99426234974977
vertex 2.08108996341743 -68.8383974163014 1.99426234974964
endloop
endfacet
facet normal 2.09167113645026e-016 -2.37890496962824e-015 1.0
outer loop
vertex 7.36687640104432 -28.7383974163014 1.99426234974969
vertex 2.08108996341743 -68.8383974163014 1.99426234974964
vertex 7.36687640104432 -59.4383974163013 1.99426234974965
endloop
endfacet
facet normal 2.09167113645026e-016 -2.37890496962824e-015 1.0
outer loop
vertex 34.2668764010444 -12.0383974163014 1.99426234974975
vertex 7.36687640104432 -28.7383974163014 1.99426234974969
vertex 35.3668764010443 -27.3383974163014 1.99426234974976
endloop
endfacet
facet normal 2.09167113645026e-016 -2.37890496962824e-015 1.0
outer loop
vertex 35.3668764010443 -27.3383974163014 1.99426234974976
vertex 7.36687640104432 -28.7383974163014 1.99426234974969
vertex 83.0668764010443 -28.7383974163014 1.9942623497497
endloop
endfacet
facet normal 2.09167113645026e-016 -2.37890496962824e-015 1.0
outer loop
vertex 34.2668764010444 -12.0383974163014 1.99426234974975
vertex 35.3668764010443 -27.3383974163014 1.99426234974976
vertex 34.2668764010444 -10.3383974163013 1.99426234974975
endloop
endfacet
facet normal 2.09167113645026e-016 -2.37890496962824e-015 1.0
outer loop
vertex 34.2668764010444 -10.3383974163013 1.99426234974975
vertex 35.3668764010443 -27.3383974163014 1.99426234974976
vertex 35.3668764010443 -10.3383974163014 1.99426234974975
endloop
endfacet
facet normal 2.09167113645026e-016 -2.37890496962824e-015 1.0
outer loop
vertex 35.3668764010443 -27.3383974163014 1.99426234974976
vertex 83.0668764010443 -28.7383974163014 1.9942623497497
vertex 86.0668764010443 -27.3383974163014 1.99426234974976
endloop
endfacet
facet normal 7.14728217443086e-016 -1.37015445853383e-015 1.0
outer loop
vertex 1.66687640104437 -69.8383974163014 11.9942623497496
vertex 2.08108996341743 -68.8383974163014 11.9942623497496
vertex 1.66687640104437 -68.4241838539284 11.9942623497496
endloop
endfacet
facet normal 7.14728217443086e-016 -1.37015445853383e-015 1.0
outer loop
vertex 2.08108996341743 -68.8383974163014 11.9942623497496
vertex 1.66687640104437 -69.8383974163014 11.9942623497496
vertex 43.5668764010444 -69.8383974163015 11.9942623497496
endloop
endfacet
facet normal 7.14728217443086e-016 -1.37015445853383e-015 1.0
outer loop
vertex 2.08108996341743 -68.8383974163014 11.9942623497496
vertex 43.5668764010444 -69.8383974163015 11.9942623497496
vertex 44.1695757462017 -68.8383974163015 11.9942623497495
endloop
endfacet
facet normal 7.14728217443086e-016 -1.37015445853383e-015 1.0
outer loop
vertex 44.1695757462017 -68.8383974163015 11.9942623497495
vertex 43.5668764010444 -69.8383974163015 11.9942623497496
vertex 45.4097571558252 -69.8383974163016 11.9942623497496
endloop
endfacet
facet normal 7.14728217443086e-016 -1.37015445853383e-015 1.0
outer loop
vertex 1.66687640104437 -69.8383974163014 11.9942623497496
vertex 0.666876401044375 -13.0383974163014 11.9942623497497
vertex 0.666876401044375 -68.8383974163015 11.9942623497496
endloop
endfacet
facet normal 7.14728217443086e-016 -1.37015445853383e-015 1.0
outer loop
vertex 0.666876401044375 -13.0383974163014 11.9942623497497
vertex 1.66687640104437 -69.8383974163014 11.9942623497496
vertex 1.66687640104437 -13.0383974163014 11.9942623497497
endloop
endfacet
facet normal 7.14728217443086e-016 -1.37015445853383e-015 1.0
outer loop
vertex 1.66687640104437 -13.0383974163014 11.9942623497497
vertex 1.66687640104437 -69.8383974163014 11.9942623497496
vertex 1.66687640104437 -68.4241838539284 11.9942623497496
endloop
endfacet
facet normal 0.0 -1.0 -2.8199664825479e-015
outer loop
vertex 83.0668764010443 -28.7383974163014 -0.00573765025030091
vertex 7.36687640104432 -28.7383974163014 1.99426234974969
vertex 7.36687640104432 -28.7383974163014 -0.00573765025030937
endloop
endfacet
facet normal 0.0 -1.0 -2.8199664825479e-015
outer loop
vertex 7.36687640104432 -28.7383974163014 1.99426234974969
vertex 83.0668764010443 -28.7383974163014 -0.00573765025030091
vertex 83.0668764010443 -28.7383974163014 1.9942623497497
endloop
endfacet
facet normal 1.0 -0.0 -0.0
outer loop
vertex 7.36687640104432 -28.7383974163014 -0.00573765025030937
vertex 7.36687640104432 -59.4383974163013 1.99426234974965
vertex 7.36687640104432 -59.4383974163013 -0.00573765025035363
endloop
endfacet
facet normal 1.0 -0.0 -0.0
outer loop
vertex 7.36687640104432 -59.4383974163013 1.99426234974965
vertex 7.36687640104432 -28.7383974163014 -0.00573765025030937
vertex 7.36687640104432 -28.7383974163014 1.99426234974969
endloop
endfacet
facet normal 6.86993821587696e-016 -6.98901839559391e-016 1.0
outer loop
vertex -0.933123598955674 -71.4383974163013 8.59426234974979
vertex 0.66687640104438 -68.8383974163014 8.59426234974971
vertex -0.933123598955657 -10.3383974163013 8.59426234974978
endloop
endfacet
facet normal 6.86993821587696e-016 -6.98901839559391e-016 1.0
outer loop
vertex 0.66687640104438 -68.8383974163014 8.59426234974971
vertex -0.933123598955674 -71.4383974163013 8.59426234974979
vertex 1.66687640104438 -69.8383974163014 8.59426234974967
endloop
endfacet
facet normal 6.86993821587696e-016 -6.98901839559391e-016 1.0
outer loop
vertex 1.66687640104438 -69.8383974163014 8.59426234974967
vertex -0.933123598955674 -71.4383974163013 8.59426234974979
vertex 43.5668764010444 -71.4383974163014 8.59426234974969
endloop
endfacet
facet normal 6.86993821587696e-016 -6.98901839559391e-016 1.0
outer loop
vertex 1.66687640104438 -69.8383974163014 8.59426234974967
vertex 43.5668764010444 -71.4383974163014 8.59426234974969
vertex 43.5668764010444 -69.8383974163015 8.59426234974968
endloop
endfacet
facet normal 6.86993821587696e-016 -6.98901839559391e-016 1.0
outer loop
vertex -0.933123598955657 -10.3383974163013 8.59426234974978
vertex 1.66687640104438 -12.0383974163014 8.59426234974974
vertex 34.2668764010444 -10.3383974163014 8.59426234974975
endloop
endfacet
facet normal 6.86993821587696e-016 -6.98901839559391e-016 1.0
outer loop
vertex 1.66687640104438 -12.0383974163014 8.59426234974974
vertex -0.933123598955657 -10.3383974163013 8.59426234974978
vertex 0.66687640104438 -13.0383974163014 8.59426234974975
endloop
endfacet
facet normal 6.86993821587696e-016 -6.98901839559391e-016 1.0
outer loop
vertex 0.66687640104438 -13.0383974163014 8.59426234974975
vertex -0.933123598955657 -10.3383974163013 8.59426234974978
vertex 0.66687640104438 -68.8383974163014 8.59426234974971
endloop
endfacet
facet normal 6.86993821587696e-016 -6.98901839559391e-016 1.0
outer loop
vertex 34.2668764010444 -10.3383974163014 8.59426234974975
vertex 1.66687640104438 -12.0383974163014 8.59426234974974
vertex 34.2668764010444 -12.0383974163014 8.59426234974975
endloop
endfacet
facet normal 9.5718791615749e-016 1.0 1.99391569473084e-015
outer loop
vertex -0.933123598955663 -10.3383974163013 1.99426234974978
vertex 34.2668764010444 -10.3383974163014 8.59426234974975
vertex 34.2668764010444 -10.3383974163013 1.99426234974975
endloop
endfacet
facet normal 9.5718791615749e-016 1.0 1.99391569473084e-015
outer loop
vertex 34.2668764010444 -10.3383974163014 8.59426234974975
vertex -0.933123598955663 -10.3383974163013 1.99426234974978
vertex -0.933123598955657 -10.3383974163013 8.59426234974978
endloop
endfacet
facet normal -0.0 1.0 -0.0
outer loop
vertex 7.36687640104432 -59.4383974163013 -0.00573765025035363
vertex 83.0668764010444 -59.4383974163013 1.99426234974959
vertex 83.0668764010444 -59.4383974163013 -0.0057376502504051
endloop
endfacet
facet normal -0.0 1.0 -0.0
outer loop
vertex 83.0668764010444 -59.4383974163013 1.99426234974959
vertex 7.36687640104432 -59.4383974163013 -0.00573765025035363
vertex 7.36687640104432 -59.4383974163013 1.99426234974965
endloop
endfacet
facet normal 6.50761495972568e-016 1.0 -2.89354054380339e-015
outer loop
vertex 87.5668764010444 -10.3383974163014 1.9942623497498
vertex 94.0668764010445 -10.3383974163014 7.99426234974973
vertex 94.0668764010444 -10.3383974163014 1.99426234974974
endloop
endfacet
facet normal 6.50761495972568e-016 1.0 -2.89354054380339e-015
outer loop
vertex 94.0668764010445 -10.3383974163014 7.99426234974973
vertex 87.5668764010444 -10.3383974163014 1.9942623497498
vertex 87.5668764010445 -10.3383974163014 7.9942623497498
endloop
endfacet
facet normal -1.0 0.0 0.0
outer loop
vertex 83.0668764010444 -54.4383974163013 1.99426234974961
vertex 83.0668764010444 -59.4383974163013 -0.0057376502504051
vertex 83.0668764010444 -59.4383974163013 1.99426234974959
endloop
endfacet
facet normal -1.0 0.0 0.0
outer loop
vertex 83.0668764010444 -59.4383974163013 -0.0057376502504051
vertex 83.0668764010444 -54.4383974163013 1.99426234974961
vertex 83.0668764010444 -52.4383974163013 -0.00573765025038953
endloop
endfacet
facet normal -1.0 0.0 0.0
outer loop
vertex 83.0668764010444 -52.4383974163013 -0.00573765025038953
vertex 83.0668764010444 -54.4383974163013 1.99426234974961
vertex 83.0668764010444 -52.4383974163013 1.99426234974967
endloop
endfacet
facet normal -1.0 4.0732691252297e-015 2.87861300066006e-015
outer loop
vertex 87.5668764010444 -14.1925030423447 11.6942623497497
vertex 87.5668764010444 -30.4383974163013 1.99426234974974
vertex 87.5668764010444 -30.4383974163014 11.6942623497497
endloop
endfacet
facet normal -1.0 4.0732691252297e-015 2.87861300066006e-015
outer loop
vertex 87.5668764010444 -30.4383974163013 1.99426234974974
vertex 87.5668764010444 -14.1925030423447 11.6942623497497
vertex 87.5668764010445 -14.1925030423445 7.99426234974985
endloop
endfacet
facet normal -1.0 4.0732691252297e-015 2.87861300066006e-015
outer loop
vertex 87.5668764010444 -30.4383974163013 1.99426234974974
vertex 87.5668764010445 -14.1925030423445 7.99426234974985
vertex 87.5668764010444 -10.3383974163014 1.9942623497498
endloop
endfacet
facet normal -1.0 4.0732691252297e-015 2.87861300066006e-015
outer loop
vertex 87.5668764010444 -10.3383974163014 1.9942623497498
vertex 87.5668764010445 -14.1925030423445 7.99426234974985
vertex 87.5668764010445 -10.3383974163014 7.9942623497498
endloop
endfacet
facet normal 1.0 -2.85656465381863e-015 -5.01327374675182e-015
outer loop
vertex 94.0668764010444 -10.3383974163014 1.99426234974974
vertex 94.0668764010443 -32.4383974163015 7.9942623497498
vertex 94.0668764010443 -32.4383974163015 1.9942623497498
endloop
endfacet
facet normal 1.0 -2.85656465381863e-015 -5.01327374675182e-015
outer loop
vertex 94.0668764010443 -32.4383974163015 7.9942623497498
vertex 94.0668764010444 -10.3383974163014 1.99426234974974
vertex 94.0668764010444 -12.1883974163013 7.99426234974974
endloop
endfacet
facet normal 1.0 -2.85656465381863e-015 -5.01327374675182e-015
outer loop
vertex 94.0668764010444 -12.1883974163013 7.99426234974974
vertex 94.0668764010444 -10.3383974163014 1.99426234974974
vertex 94.0668764010445 -10.3383974163014 7.99426234974973
endloop
endfacet
facet normal -1.0 0.0 0.0
outer loop
vertex 83.0668764010443 -28.7383974163014 1.9942623497497
vertex 83.0668764010443 -35.7383974163014 -0.00573765025030655
vertex 83.0668764010443 -35.7383974163014 1.99426234974968
endloop
endfacet
facet normal -1.0 0.0 0.0
outer loop
vertex 83.0668764010443 -35.7383974163014 -0.00573765025030655
vertex 83.0668764010443 -28.7383974163014 1.9942623497497
vertex 83.0668764010443 -28.7383974163014 -0.00573765025030091
endloop
endfacet
facet normal 2.04425008533262e-016 0.70710678118655 -0.707106781186545
outer loop
vertex 86.0668764010444 -12.3383974163014 -0.00573765025026301
vertex 94.0668764010444 -10.3383974163014 1.99426234974974
vertex 92.0668764010444 -12.3383974163014 -0.00573765025026561
endloop
endfacet
facet normal 2.04425008533262e-016 0.70710678118655 -0.707106781186545
outer loop
vertex 94.0668764010444 -10.3383974163014 1.99426234974974
vertex 86.0668764010444 -12.3383974163014 -0.00573765025026301
vertex 86.0668764010444 -10.3383974163014 1.99426234974975
endloop
endfacet
facet normal 2.04425008533262e-016 0.70710678118655 -0.707106781186545
outer loop
vertex 94.0668764010444 -10.3383974163014 1.99426234974974
vertex 86.0668764010444 -10.3383974163014 1.99426234974975
vertex 87.5668764010444 -10.3383974163014 1.9942623497498
endloop
endfacet
facet normal 0.707106781186543 -0.707106781186552 1.3443939205207e-015
outer loop
vertex 1.66687640104438 -12.0383974163014 8.59426234974974
vertex 0.66687640104438 -13.0383974163014 1.99426234974978
vertex 1.66687640104437 -12.0383974163014 1.99426234974978
endloop
endfacet
facet normal 0.707106781186543 -0.707106781186552 1.3443939205207e-015
outer loop
vertex 0.66687640104438 -13.0383974163014 1.99426234974978
vertex 1.66687640104438 -12.0383974163014 8.59426234974974
vertex 0.66687640104438 -13.0383974163014 8.59426234974975
endloop
endfacet
facet normal 1.39098523831385e-014 1.29693985103441e-015 1.0
outer loop
vertex 91.5668764010444 -14.1883974163013 7.99426234974973
vertex 87.5668764010445 -10.3383974163014 7.9942623497498
vertex 87.5668764010445 -14.1925030423445 7.99426234974985
endloop
endfacet
facet normal 1.39098523831385e-014 1.29693985103441e-015 1.0
outer loop
vertex 87.5668764010445 -10.3383974163014 7.9942623497498
vertex 91.5668764010444 -14.1883974163013 7.99426234974973
vertex 94.0668764010445 -10.3383974163014 7.99426234974973
endloop
endfacet
facet normal 1.39098523831385e-014 1.29693985103441e-015 1.0
outer loop
vertex 94.0668764010445 -10.3383974163014 7.99426234974973
vertex 91.5668764010444 -14.1883974163013 7.99426234974973
vertex 94.0668764010444 -12.1883974163013 7.99426234974974
endloop
endfacet
facet normal 3.75995531006387e-015 1.0 2.43602055609477e-016
outer loop
vertex 0.66687640104438 -13.0383974163014 1.99426234974978
vertex 1.66687640104437 -13.0383974163014 11.9942623497497
vertex 1.66687640104437 -13.0383974163014 1.99426234974977
endloop
endfacet
facet normal 3.75995531006387e-015 1.0 2.43602055609477e-016
outer loop
vertex 1.66687640104437 -13.0383974163014 11.9942623497497
vertex 0.66687640104438 -13.0383974163014 1.99426234974978
vertex 0.66687640104438 -13.0383974163014 8.59426234974975
endloop
endfacet
facet normal 3.75995531006387e-015 1.0 2.43602055609477e-016
outer loop
vertex 1.66687640104437 -13.0383974163014 11.9942623497497
vertex 0.66687640104438 -13.0383974163014 8.59426234974975
vertex 0.666876401044375 -13.0383974163014 11.9942623497497
endloop
endfacet
facet normal -1.51126206473959e-015 -0.707106781186541 -0.707106781186555
outer loop
vertex 1.06687640104432 -69.4383974163012 -0.00573765025030227
vertex 94.0668764010444 -71.4383974163013 1.99426234974958
vertex -0.93312359895568 -71.4383974163013 1.9942623497498
endloop
endfacet
facet normal -1.51126206473959e-015 -0.707106781186541 -0.707106781186555
outer loop
vertex 94.0668764010444 -71.4383974163013 1.99426234974958
vertex 1.06687640104432 -69.4383974163012 -0.00573765025030227
vertex 92.0668764010444 -69.4383974163013 -0.00573765025041507
endloop
endfacet
facet normal 0.707106781186555 1.64838773896268e-015 -0.70710678118654
outer loop
vertex 92.0668764010444 -69.4383974163013 -0.00573765025041507
vertex 94.0668764010443 -52.3328781282505 1.99426234974967
vertex 94.0668764010444 -71.4383974163013 1.99426234974958
endloop
endfacet
facet normal 0.707106781186555 1.64838773896268e-015 -0.70710678118654
outer loop
vertex 94.0668764010443 -52.3328781282505 1.99426234974967
vertex 92.0668764010444 -69.4383974163013 -0.00573765025041507
vertex 92.0668764010444 -12.3383974163014 -0.00573765025026561
endloop
endfacet
facet normal 0.707106781186555 1.64838773896268e-015 -0.70710678118654
outer loop
vertex 94.0668764010443 -52.3328781282505 1.99426234974967
vertex 92.0668764010444 -12.3383974163014 -0.00573765025026561
vertex 94.0668764010443 -50.9383974163015 1.99426234974969
endloop
endfacet
facet normal 0.707106781186555 1.64838773896268e-015 -0.70710678118654
outer loop
vertex 94.0668764010443 -50.9383974163015 1.99426234974969
vertex 92.0668764010444 -12.3383974163014 -0.00573765025026561
vertex 94.0668764010443 -36.8383974163015 1.99426234974965
endloop
endfacet
facet normal 0.707106781186555 1.64838773896268e-015 -0.70710678118654
outer loop
vertex 94.0668764010443 -36.8383974163015 1.99426234974965
vertex 92.0668764010444 -12.3383974163014 -0.00573765025026561
vertex 94.0668764010443 -32.4383974163015 1.9942623497498
endloop
endfacet
facet normal 0.707106781186555 1.64838773896268e-015 -0.70710678118654
outer loop
vertex 94.0668764010443 -32.4383974163015 1.9942623497498
vertex 92.0668764010444 -12.3383974163014 -0.00573765025026561
vertex 94.0668764010444 -10.3383974163014 1.99426234974974
endloop
endfacet
facet normal -4.7576121638078e-016 -1.0 2.34997206878992e-015
outer loop
vertex 34.2668764010444 -12.0383974163014 8.59426234974975
vertex 1.66687640104437 -12.0383974163014 1.99426234974978
vertex 34.2668764010444 -12.0383974163014 1.99426234974975
endloop
endfacet
facet normal -4.7576121638078e-016 -1.0 2.34997206878992e-015
outer loop
vertex 1.66687640104437 -12.0383974163014 1.99426234974978
vertex 34.2668764010444 -12.0383974163014 8.59426234974975
vertex 1.66687640104438 -12.0383974163014 8.59426234974974
endloop
endfacet
facet normal -0.707106781186545 -0.70710678118655 2.04692158555344e-029
outer loop
vertex 86.0668764010443 -38.7383974163014 1.9942623497497
vertex 83.0668764010443 -35.7383974163014 -0.00573765025030655
vertex 86.0668764010443 -38.7383974163014 -0.00573765025034695
endloop
endfacet
facet normal -0.707106781186545 -0.70710678118655 2.04692158555344e-029
outer loop
vertex 83.0668764010443 -35.7383974163014 -0.00573765025030655
vertex 86.0668764010443 -38.7383974163014 1.9942623497497
vertex 83.0668764010443 -35.7383974163014 1.99426234974968
endloop
endfacet
facet normal -1.0 -1.054193077588e-015 -5.63993296509565e-015
outer loop
vertex 86.0668764010443 -38.7383974163014 1.9942623497497
vertex 86.0668764010443 -49.4383974163013 -0.00573765025037412
vertex 86.0668764010443 -49.4383974163013 1.9942623497497
endloop
endfacet
facet normal -1.0 -1.054193077588e-015 -5.63993296509565e-015
outer loop
vertex 86.0668764010443 -49.4383974163013 -0.00573765025037412
vertex 86.0668764010443 -38.7383974163014 1.9942623497497
vertex 86.0668764010443 -38.7383974163014 -0.00573765025034695
endloop
endfacet
endsolid PiHolder
